<svg width="81" height="103" viewBox="0 0 81 103" fill="none" xmlns="http://www.w3.org/2000/svg">
<rect width="3.26366" height="80.3318" transform="matrix(0.869601 0.493754 -0.506272 0.862374 41.8354 6.57159)" fill="#816D88"/>
<path d="M0.120667 77.6024L2.0263 74.3795H67.1963V77.6024H0.120667Z" fill="#816D88"/>
<rect width="3.26366" height="80.3318" transform="matrix(0.869601 0.493754 -0.506272 0.862374 53.7911 0.222595)" fill="#816D88"/>
<path d="M12.0763 71.2534L13.9819 68.0305H79.1519V71.2534H12.0763Z" fill="#816D88"/>
<rect width="3.24334" height="80.8372" transform="matrix(0.875049 -0.496848 0.503107 0.856982 4.4483 31.9565)" fill="#EFC9FC"/>
<path d="M46.1406 103L44.2554 99.7655L76.8403 44.2608L79.6784 45.8723L46.1406 103Z" fill="#EFC9FC"/>
<rect width="3.24334" height="80.8372" transform="matrix(0.875049 -0.496848 0.503107 0.856982 4.83521 18.5996)" fill="#EFC9FC"/>
<path d="M46.5276 89.6431L44.6424 86.4086L77.2273 30.9039L80.0654 32.5154L46.5276 89.6431Z" fill="#EFC9FC"/>
</svg>
