<svg width="377" height="287" viewBox="0 0 377 287" fill="none" xmlns="http://www.w3.org/2000/svg">
<path d="M374.741 24.443C374.741 24.751 374.653 25.07 374.477 25.4C374.323 25.73 374.125 26.06 373.883 26.39C373.641 26.72 373.377 27.039 373.091 27.347C372.805 27.633 372.541 27.886 372.299 28.106C371.705 28.634 371.089 29.14 370.451 29.624C369.835 30.086 369.186 30.504 368.504 30.878C367.844 31.252 367.151 31.549 366.425 31.769C365.699 31.989 364.94 32.099 364.148 32.099C361.75 32.099 360.551 30.867 360.551 28.403C360.551 28.161 360.65 27.688 360.848 26.984C361.046 26.28 361.299 25.477 361.607 24.575C361.915 23.673 362.278 22.727 362.696 21.737C363.114 20.747 363.543 19.845 363.983 19.031C364.423 18.195 364.852 17.513 365.27 16.985C365.71 16.457 366.117 16.193 366.491 16.193C366.733 16.193 366.909 16.27 367.019 16.424C367.151 16.578 367.217 16.743 367.217 16.919C367.195 17.051 367.041 17.337 366.755 17.777C366.469 18.195 366.172 18.624 365.864 19.064C365.82 19.13 365.743 19.24 365.633 19.394C365.523 19.548 365.413 19.702 365.303 19.856C365.171 20.032 365.039 20.219 364.907 20.417C364.819 20.571 364.621 20.967 364.313 21.605C364.027 22.221 363.719 22.947 363.389 23.783C363.059 24.597 362.762 25.455 362.498 26.357C362.234 27.237 362.102 28.007 362.102 28.667C362.102 29.041 362.179 29.338 362.333 29.558C362.509 29.778 362.707 29.943 362.927 30.053C363.169 30.163 363.411 30.24 363.653 30.284C363.917 30.306 364.148 30.317 364.346 30.317C365.16 30.317 366.018 30.141 366.92 29.789C367.844 29.415 368.724 28.931 369.56 28.337C370.396 27.743 371.166 27.061 371.87 26.291C372.574 25.499 373.124 24.685 373.52 23.849C373.608 23.695 373.696 23.596 373.784 23.552C373.894 23.508 373.993 23.486 374.081 23.486C374.257 23.486 374.411 23.607 374.543 23.849C374.675 24.091 374.741 24.289 374.741 24.443Z" fill="#FEFEFE"/>
<path d="M376.995 41.136C376.995 41.532 376.808 42.027 376.434 42.621C376.082 43.193 375.598 43.754 374.982 44.304C374.366 44.854 373.651 45.327 372.837 45.723C372.023 46.097 371.176 46.284 370.296 46.284C369.9 46.284 369.482 46.218 369.042 46.086C368.602 45.954 368.173 45.767 367.755 45.525C367.337 45.261 366.963 44.953 366.633 44.601C366.303 44.227 366.061 43.809 365.907 43.347C365.775 43.479 365.61 43.699 365.412 44.007C365.236 44.315 365.038 44.634 364.818 44.964C364.598 45.272 364.356 45.547 364.092 45.789C363.828 46.009 363.553 46.119 363.267 46.119C362.981 46.119 362.739 45.976 362.541 45.69C362.365 45.382 362.222 45.052 362.112 44.7C362.002 44.326 361.925 43.974 361.881 43.644C361.837 43.314 361.815 43.127 361.815 43.083C361.815 42.819 361.892 42.324 362.046 41.598C362.2 40.85 362.431 40.08 362.739 39.288C363.047 38.496 363.432 37.792 363.894 37.176C364.378 36.56 364.939 36.252 365.577 36.252C365.819 36.252 365.973 36.362 366.039 36.582C366.127 36.78 366.171 36.978 366.171 37.176V38.166C366.281 38.254 366.391 38.32 366.501 38.364C366.633 38.386 366.743 38.43 366.831 38.496C366.941 38.54 367.018 38.617 367.062 38.727C367.128 38.837 367.161 39.013 367.161 39.255C367.161 39.409 367.15 39.552 367.128 39.684C367.106 39.794 367.095 39.904 367.095 40.014C367.095 40.586 367.139 41.147 367.227 41.697C367.315 42.247 367.491 42.742 367.755 43.182C368.019 43.6 368.382 43.952 368.844 44.238C369.306 44.502 369.922 44.634 370.692 44.634C371.66 44.634 372.474 44.436 373.134 44.04C373.816 43.622 374.377 43.171 374.817 42.687C375.279 42.181 375.642 41.73 375.906 41.334C376.17 40.916 376.39 40.707 376.566 40.707C376.852 40.707 376.995 40.85 376.995 41.136ZM365.412 39.684C365.412 39.596 365.39 39.519 365.346 39.453C365.302 39.365 365.28 39.288 365.28 39.222C365.28 39.134 365.302 39.057 365.346 38.991C365.39 38.925 365.412 38.837 365.412 38.727C365.412 38.661 365.39 38.617 365.346 38.595C365.302 38.551 365.28 38.507 365.28 38.463C365.082 38.507 364.873 38.694 364.653 39.024C364.455 39.354 364.257 39.739 364.059 40.179C363.883 40.619 363.74 41.07 363.63 41.532C363.52 41.972 363.465 42.335 363.465 42.621C363.465 42.775 363.509 43.028 363.597 43.38C363.685 43.732 363.784 43.963 363.894 44.073C364.268 43.303 364.609 42.555 364.917 41.829C365.247 41.103 365.412 40.388 365.412 39.684Z" fill="#FEFEFE"/>
<path d="M373.065 52.084C372.779 52.414 372.372 52.744 371.844 53.074C371.316 53.382 370.788 53.668 370.26 53.932C369.732 54.196 369.27 54.427 368.874 54.625C368.478 54.801 368.28 54.922 368.28 54.988C368.28 55.054 368.324 55.252 368.412 55.582C368.5 55.912 368.599 56.308 368.709 56.77C368.841 57.21 368.973 57.672 369.105 58.156C369.237 58.64 369.347 59.069 369.435 59.443C369.479 59.663 369.534 59.949 369.6 60.301C369.666 60.653 369.721 61.005 369.765 61.357C369.831 61.709 369.886 62.028 369.93 62.314C369.974 62.578 369.996 62.721 369.996 62.743C369.996 63.073 369.941 63.414 369.831 63.766C369.721 64.118 369.545 64.294 369.303 64.294C369.171 64.294 369.05 64.239 368.94 64.129C368.83 64.019 368.731 63.898 368.643 63.766C368.555 63.612 368.489 63.469 368.445 63.337C368.401 63.205 368.379 63.106 368.379 63.04C368.379 62.996 368.379 62.93 368.379 62.842C368.401 62.754 368.412 62.655 368.412 62.545C368.412 62.127 368.346 61.522 368.214 60.73C368.17 60.488 368.082 60.114 367.95 59.608C367.818 59.102 367.686 58.585 367.554 58.057C367.4 57.441 367.224 56.77 367.026 56.044C366.938 55.736 366.883 55.582 366.861 55.582C366.707 55.582 366.443 55.681 366.069 55.879C365.717 56.055 365.31 56.286 364.848 56.572C364.386 56.836 363.902 57.133 363.396 57.463C362.89 57.771 362.417 58.068 361.977 58.354C361.537 58.618 361.163 58.849 360.855 59.047C360.525 59.223 360.327 59.311 360.261 59.311C359.975 59.311 359.744 59.212 359.568 59.014C359.392 58.816 359.304 58.596 359.304 58.354C359.304 58.222 359.491 58.035 359.865 57.793C360.217 57.529 360.668 57.243 361.218 56.935C361.746 56.627 362.329 56.308 362.967 55.978C363.583 55.648 364.155 55.351 364.683 55.087C365.233 54.823 365.684 54.603 366.036 54.427C366.41 54.251 366.597 54.163 366.597 54.163C366.399 53.151 366.234 52.249 366.102 51.457C365.992 50.775 365.882 50.148 365.772 49.576C365.684 49.004 365.64 48.696 365.64 48.652C365.64 48.366 365.695 48.157 365.805 48.025C365.937 47.871 366.08 47.794 366.234 47.794C366.476 47.794 366.63 47.959 366.696 48.289C366.938 49.477 367.158 50.533 367.356 51.457C367.576 52.381 367.785 53.129 367.983 53.701C368.181 53.657 368.522 53.536 369.006 53.338C369.49 53.118 369.996 52.887 370.524 52.645C371.052 52.403 371.525 52.194 371.943 52.018C372.383 51.82 372.636 51.721 372.702 51.721C372.834 51.721 372.911 51.765 372.933 51.853C372.977 51.941 373.021 52.018 373.065 52.084Z" fill="#FEFEFE"/>
<path d="M372.494 76.535C372.516 76.579 372.527 76.645 372.527 76.733C372.527 76.865 372.428 77.063 372.23 77.327C372.164 77.415 372.021 77.558 371.801 77.756C371.581 77.954 371.284 78.152 370.91 78.35C370.536 78.548 370.074 78.724 369.524 78.878C368.996 79.032 368.369 79.109 367.643 79.109C367.137 79.109 366.642 78.999 366.158 78.779C365.674 78.537 365.245 78.196 364.871 77.756C364.497 77.294 364.189 76.733 363.947 76.073C363.705 75.391 363.584 74.599 363.584 73.697C363.584 72.839 363.694 72.036 363.914 71.288C364.134 70.54 364.409 69.88 364.739 69.308C365.091 68.736 365.476 68.285 365.894 67.955C366.312 67.625 366.719 67.46 367.115 67.46C367.467 67.46 367.819 67.537 368.171 67.691C368.545 67.823 368.875 67.999 369.161 68.219C369.469 68.439 369.711 68.692 369.887 68.978C370.063 69.242 370.151 69.517 370.151 69.803C370.151 70.133 369.997 70.474 369.689 70.826C369.403 71.178 369.051 71.508 368.633 71.816C368.215 72.102 367.797 72.344 367.379 72.542C366.961 72.718 366.631 72.806 366.389 72.806C366.257 72.806 366.136 72.751 366.026 72.641C365.938 72.509 365.894 72.355 365.894 72.179C365.894 71.871 366.026 71.629 366.29 71.453C366.576 71.277 366.884 71.123 367.214 70.991C367.544 70.837 367.841 70.661 368.105 70.463C368.391 70.265 368.534 69.99 368.534 69.638C368.534 69.594 368.479 69.484 368.369 69.308C368.259 69.132 367.962 69.044 367.478 69.044C367.258 69.044 367.005 69.176 366.719 69.44C366.433 69.682 366.158 70.023 365.894 70.463C365.63 70.881 365.41 71.387 365.234 71.981C365.058 72.553 364.97 73.18 364.97 73.862C364.97 74.434 365.069 74.951 365.267 75.413C365.487 75.875 365.762 76.271 366.092 76.601C366.422 76.909 366.807 77.151 367.247 77.327C367.687 77.503 368.138 77.591 368.6 77.591C368.93 77.591 369.282 77.525 369.656 77.393C370.052 77.239 370.415 77.085 370.745 76.931C371.097 76.755 371.394 76.601 371.636 76.469C371.9 76.315 372.065 76.238 372.131 76.238C372.197 76.238 372.263 76.271 372.329 76.337C372.417 76.403 372.472 76.469 372.494 76.535Z" fill="#FEFEFE"/>
<path d="M373.065 86.084C372.779 86.414 372.372 86.744 371.844 87.074C371.316 87.382 370.788 87.668 370.26 87.932C369.732 88.196 369.27 88.427 368.874 88.625C368.478 88.801 368.28 88.922 368.28 88.988C368.28 89.054 368.324 89.252 368.412 89.582C368.5 89.912 368.599 90.308 368.709 90.77C368.841 91.21 368.973 91.672 369.105 92.156C369.237 92.64 369.347 93.069 369.435 93.443C369.479 93.663 369.534 93.949 369.6 94.301C369.666 94.653 369.721 95.005 369.765 95.357C369.831 95.709 369.886 96.028 369.93 96.314C369.974 96.578 369.996 96.721 369.996 96.743C369.996 97.073 369.941 97.414 369.831 97.766C369.721 98.118 369.545 98.294 369.303 98.294C369.171 98.294 369.05 98.239 368.94 98.129C368.83 98.019 368.731 97.898 368.643 97.766C368.555 97.612 368.489 97.469 368.445 97.337C368.401 97.205 368.379 97.106 368.379 97.04C368.379 96.996 368.379 96.93 368.379 96.842C368.401 96.754 368.412 96.655 368.412 96.545C368.412 96.127 368.346 95.522 368.214 94.73C368.17 94.488 368.082 94.114 367.95 93.608C367.818 93.102 367.686 92.585 367.554 92.057C367.4 91.441 367.224 90.77 367.026 90.044C366.938 89.736 366.883 89.582 366.861 89.582C366.707 89.582 366.443 89.681 366.069 89.879C365.717 90.055 365.31 90.286 364.848 90.572C364.386 90.836 363.902 91.133 363.396 91.463C362.89 91.771 362.417 92.068 361.977 92.354C361.537 92.618 361.163 92.849 360.855 93.047C360.525 93.223 360.327 93.311 360.261 93.311C359.975 93.311 359.744 93.212 359.568 93.014C359.392 92.816 359.304 92.596 359.304 92.354C359.304 92.222 359.491 92.035 359.865 91.793C360.217 91.529 360.668 91.243 361.218 90.935C361.746 90.627 362.329 90.308 362.967 89.978C363.583 89.648 364.155 89.351 364.683 89.087C365.233 88.823 365.684 88.603 366.036 88.427C366.41 88.251 366.597 88.163 366.597 88.163C366.399 87.151 366.234 86.249 366.102 85.457C365.992 84.775 365.882 84.148 365.772 83.576C365.684 83.004 365.64 82.696 365.64 82.652C365.64 82.366 365.695 82.157 365.805 82.025C365.937 81.871 366.08 81.794 366.234 81.794C366.476 81.794 366.63 81.959 366.696 82.289C366.938 83.477 367.158 84.533 367.356 85.457C367.576 86.381 367.785 87.129 367.983 87.701C368.181 87.657 368.522 87.536 369.006 87.338C369.49 87.118 369.996 86.887 370.524 86.645C371.052 86.403 371.525 86.194 371.943 86.018C372.383 85.82 372.636 85.721 372.702 85.721C372.834 85.721 372.911 85.765 372.933 85.853C372.977 85.941 373.021 86.018 373.065 86.084Z" fill="#FEFEFE"/>
<path d="M370.227 105.872C370.227 106.356 370.161 106.818 370.029 107.258C369.897 107.698 369.721 108.083 369.501 108.413C369.281 108.743 369.017 109.007 368.709 109.205C368.423 109.381 368.104 109.469 367.752 109.469C367.136 109.469 366.652 109.293 366.3 108.941C365.948 108.589 365.673 108.182 365.475 107.72C365.299 107.258 365.178 106.796 365.112 106.334C365.068 105.85 365.046 105.487 365.046 105.245C365.046 104.849 365.101 104.409 365.211 103.925C365.343 103.419 365.508 102.957 365.706 102.539C365.926 102.121 366.168 101.769 366.432 101.483C366.696 101.197 366.971 101.054 367.257 101.054C367.323 101.054 367.422 101.076 367.554 101.12C367.708 101.164 367.862 101.23 368.016 101.318C368.17 101.406 368.302 101.516 368.412 101.648C368.544 101.78 368.632 101.934 368.676 102.11C368.918 102.132 369.16 102.22 369.402 102.374C369.644 102.528 369.776 102.649 369.798 102.737C369.974 103.309 370.084 103.881 370.128 104.453C370.194 105.025 370.227 105.498 370.227 105.872ZM368.742 105.278C368.742 104.948 368.709 104.607 368.643 104.255C368.577 103.881 368.445 103.507 368.247 103.133C368.203 103.155 368.148 103.166 368.082 103.166C367.994 103.166 367.917 103.155 367.851 103.133C367.807 103.111 367.763 103.1 367.719 103.1C367.455 103.1 367.246 103.177 367.092 103.331C366.938 103.463 366.817 103.65 366.729 103.892C366.663 104.112 366.619 104.354 366.597 104.618C366.575 104.882 366.564 105.135 366.564 105.377C366.564 105.619 366.575 105.894 366.597 106.202C366.619 106.488 366.663 106.763 366.729 107.027C366.817 107.291 366.927 107.522 367.059 107.72C367.191 107.896 367.367 107.984 367.587 107.984C367.807 107.984 367.994 107.874 368.148 107.654C368.302 107.412 368.423 107.137 368.511 106.829C368.599 106.521 368.654 106.224 368.676 105.938C368.72 105.63 368.742 105.41 368.742 105.278Z" fill="#FEFEFE"/>
<path d="M372.88 142.486C372.924 142.772 372.946 143.003 372.946 143.179C372.968 143.355 372.979 143.531 372.979 143.707C372.979 144.257 372.902 144.906 372.748 145.654C372.616 146.402 372.374 147.117 372.022 147.799C371.692 148.459 371.241 149.031 370.669 149.515C370.119 149.977 369.415 150.208 368.557 150.208C367.765 150.208 367.017 149.988 366.313 149.548C365.609 149.086 364.982 148.503 364.432 147.799C363.882 147.073 363.442 146.27 363.112 145.39C362.804 144.488 362.65 143.597 362.65 142.717C362.65 141.441 362.727 140.352 362.881 139.45C363.057 138.526 363.299 137.723 363.607 137.041C363.607 136.975 363.563 136.909 363.475 136.843C363.409 136.777 363.376 136.689 363.376 136.579C363.376 136.469 363.475 136.326 363.673 136.15C363.893 135.974 364.146 135.809 364.432 135.655C364.74 135.479 365.037 135.336 365.323 135.226C365.631 135.094 365.862 135.028 366.016 135.028C366.104 135.028 366.247 135.072 366.445 135.16C366.665 135.248 366.94 135.292 367.27 135.292C367.38 135.292 367.49 135.281 367.6 135.259C367.71 135.237 367.831 135.226 367.963 135.226C368.425 135.226 368.92 135.446 369.448 135.886C369.998 136.304 370.504 136.854 370.966 137.536C371.45 138.218 371.857 138.999 372.187 139.879C372.539 140.737 372.77 141.606 372.88 142.486ZM371.56 143.773C371.56 143.355 371.472 142.761 371.296 141.991C371.12 141.199 370.856 140.429 370.504 139.681C370.152 138.911 369.723 138.24 369.217 137.668C368.733 137.096 368.183 136.81 367.567 136.81C367.523 136.81 367.435 136.81 367.303 136.81C367.193 136.788 367.061 136.777 366.907 136.777C366.753 136.755 366.61 136.744 366.478 136.744C366.346 136.722 366.269 136.711 366.247 136.711C365.895 136.711 365.587 136.876 365.323 137.206C365.081 137.536 364.872 137.965 364.696 138.493C364.542 139.021 364.421 139.626 364.333 140.308C364.245 140.99 364.201 141.672 364.201 142.354C364.201 142.596 364.267 143.069 364.399 143.773C364.531 144.455 364.762 145.17 365.092 145.918C365.444 146.644 365.906 147.293 366.478 147.865C367.05 148.437 367.776 148.723 368.656 148.723C369.25 148.723 369.734 148.547 370.108 148.195C370.482 147.821 370.768 147.37 370.966 146.842C371.186 146.314 371.34 145.775 371.428 145.225C371.516 144.653 371.56 144.169 371.56 143.773Z" fill="#FEFEFE"/>
<path d="M373.913 156.463C373.913 157.035 373.748 157.585 373.418 158.113C373.11 158.641 372.725 159.136 372.263 159.598C371.801 160.038 371.295 160.456 370.745 160.852C370.195 161.226 369.689 161.556 369.227 161.842C368.787 162.15 368.424 162.403 368.138 162.601C367.852 162.799 367.709 162.953 367.709 163.063C367.709 163.349 367.742 163.756 367.808 164.284C367.874 164.79 367.951 165.351 368.039 165.967C368.149 166.561 368.248 167.177 368.336 167.815C368.446 168.453 368.523 169.036 368.567 169.564C368.567 169.586 368.578 169.685 368.6 169.861C368.644 170.037 368.688 170.235 368.732 170.455C368.798 170.675 368.842 170.873 368.864 171.049C368.908 171.247 368.93 171.368 368.93 171.412C368.93 171.566 368.919 171.731 368.897 171.907C368.897 172.105 368.864 172.281 368.798 172.435C368.754 172.611 368.677 172.754 368.567 172.864C368.457 172.974 368.314 173.029 368.138 173.029C367.896 173.029 367.72 172.919 367.61 172.699C367.5 172.501 367.445 172.303 367.445 172.105C367.445 172.061 367.445 172.017 367.445 171.973C367.467 171.929 367.478 171.874 367.478 171.808C367.478 171.566 367.39 170.917 367.214 169.861C367.038 168.805 366.84 167.54 366.62 166.066C366.4 164.614 366.202 163.052 366.026 161.38C365.85 159.686 365.762 158.091 365.762 156.595C365.762 156.485 365.773 156.364 365.795 156.232C365.817 156.078 365.828 155.946 365.828 155.836C365.608 155.858 365.278 155.957 364.838 156.133C364.42 156.309 364.002 156.529 363.584 156.793C363.166 157.035 362.792 157.299 362.462 157.585C362.154 157.849 362 158.091 362 158.311H361.769C361.703 158.311 361.626 158.267 361.538 158.179C361.428 158.091 361.34 157.992 361.274 157.882C361.186 157.772 361.109 157.662 361.043 157.552C360.977 157.442 360.944 157.365 360.944 157.321C360.944 156.859 361.219 156.43 361.769 156.034C362.319 155.616 363.001 155.253 363.815 154.945C364.651 154.615 365.564 154.362 366.554 154.186C367.544 153.988 368.479 153.889 369.359 153.889C370.217 153.889 370.932 153.988 371.504 154.186C372.098 154.384 372.571 154.626 372.923 154.912C373.275 155.176 373.528 155.451 373.682 155.737C373.836 156.023 373.913 156.265 373.913 156.463ZM372.296 156.364C372.296 156.144 372.021 155.924 371.471 155.704C370.921 155.462 370.272 155.341 369.524 155.341C368.864 155.341 368.38 155.363 368.072 155.407C367.764 155.451 367.555 155.495 367.445 155.539C367.401 155.891 367.368 156.309 367.346 156.793C367.324 157.277 367.313 157.772 367.313 158.278C367.313 158.806 367.324 159.323 367.346 159.829C367.39 160.313 367.434 160.72 367.478 161.05C367.786 160.852 368.204 160.588 368.732 160.258C369.282 159.906 369.821 159.521 370.349 159.103C370.877 158.663 371.328 158.212 371.702 157.75C372.098 157.266 372.296 156.804 372.296 156.364Z" fill="#FEFEFE"/>
<path d="M370.227 181.872C370.227 182.356 370.161 182.818 370.029 183.258C369.897 183.698 369.721 184.083 369.501 184.413C369.281 184.743 369.017 185.007 368.709 185.205C368.423 185.381 368.104 185.469 367.752 185.469C367.136 185.469 366.652 185.293 366.3 184.941C365.948 184.589 365.673 184.182 365.475 183.72C365.299 183.258 365.178 182.796 365.112 182.334C365.068 181.85 365.046 181.487 365.046 181.245C365.046 180.849 365.101 180.409 365.211 179.925C365.343 179.419 365.508 178.957 365.706 178.539C365.926 178.121 366.168 177.769 366.432 177.483C366.696 177.197 366.971 177.054 367.257 177.054C367.323 177.054 367.422 177.076 367.554 177.12C367.708 177.164 367.862 177.23 368.016 177.318C368.17 177.406 368.302 177.516 368.412 177.648C368.544 177.78 368.632 177.934 368.676 178.11C368.918 178.132 369.16 178.22 369.402 178.374C369.644 178.528 369.776 178.649 369.798 178.737C369.974 179.309 370.084 179.881 370.128 180.453C370.194 181.025 370.227 181.498 370.227 181.872ZM368.742 181.278C368.742 180.948 368.709 180.607 368.643 180.255C368.577 179.881 368.445 179.507 368.247 179.133C368.203 179.155 368.148 179.166 368.082 179.166C367.994 179.166 367.917 179.155 367.851 179.133C367.807 179.111 367.763 179.1 367.719 179.1C367.455 179.1 367.246 179.177 367.092 179.331C366.938 179.463 366.817 179.65 366.729 179.892C366.663 180.112 366.619 180.354 366.597 180.618C366.575 180.882 366.564 181.135 366.564 181.377C366.564 181.619 366.575 181.894 366.597 182.202C366.619 182.488 366.663 182.763 366.729 183.027C366.817 183.291 366.927 183.522 367.059 183.72C367.191 183.896 367.367 183.984 367.587 183.984C367.807 183.984 367.994 183.874 368.148 183.654C368.302 183.412 368.423 183.137 368.511 182.829C368.599 182.521 368.654 182.224 368.676 181.938C368.72 181.63 368.742 181.41 368.742 181.278Z" fill="#FEFEFE"/>
<path d="M371.745 196.644C371.745 197.018 371.613 197.348 371.349 197.634C371.107 197.898 370.788 198.129 370.392 198.327C370.018 198.503 369.6 198.646 369.138 198.756C368.676 198.866 368.236 198.954 367.818 199.02C367.4 199.064 367.026 199.097 366.696 199.119C366.388 199.119 366.19 199.119 366.102 199.119C365.618 199.119 365.244 199.042 364.98 198.888C364.716 198.734 364.584 198.459 364.584 198.063C364.584 197.931 364.595 197.821 364.617 197.733C364.639 197.623 364.727 197.568 364.881 197.568C364.947 197.568 365.057 197.59 365.211 197.634C365.365 197.656 365.486 197.667 365.574 197.667C365.662 197.667 365.937 197.656 366.399 197.634C366.883 197.59 367.389 197.524 367.917 197.436C368.467 197.348 368.951 197.227 369.369 197.073C369.809 196.897 370.029 196.677 370.029 196.413C370.029 196.369 369.798 196.237 369.336 196.017C368.896 195.775 368.225 195.379 367.323 194.829C366.619 194.389 366.124 193.949 365.838 193.509C365.552 193.047 365.409 192.431 365.409 191.661C365.409 191.177 365.508 190.781 365.706 190.473C365.926 190.165 366.212 189.923 366.564 189.747C366.938 189.571 367.356 189.45 367.818 189.384C368.302 189.296 368.808 189.252 369.336 189.252C369.38 189.252 369.512 189.274 369.732 189.318C369.974 189.362 370.227 189.439 370.491 189.549C370.755 189.637 370.986 189.758 371.184 189.912C371.404 190.044 371.514 190.198 371.514 190.374C371.514 190.418 371.47 190.484 371.382 190.572C371.316 190.66 371.195 190.825 371.019 191.067C370.953 191.045 370.832 191.012 370.656 190.968C370.502 190.924 370.315 190.88 370.095 190.836C369.897 190.77 369.688 190.726 369.468 190.704C369.248 190.66 369.072 190.638 368.94 190.638C368.368 190.638 367.906 190.748 367.554 190.968C367.202 191.166 367.026 191.562 367.026 192.156C367.026 192.442 367.136 192.706 367.356 192.948C367.598 193.19 367.895 193.421 368.247 193.641C368.599 193.839 368.973 194.048 369.369 194.268C369.787 194.466 370.172 194.686 370.524 194.928C370.876 195.17 371.162 195.434 371.382 195.72C371.624 195.984 371.745 196.292 371.745 196.644Z" fill="#FEFEFE"/>
<path d="M373.065 207.084C372.779 207.414 372.372 207.744 371.844 208.074C371.316 208.382 370.788 208.668 370.26 208.932C369.732 209.196 369.27 209.427 368.874 209.625C368.478 209.801 368.28 209.922 368.28 209.988C368.28 210.054 368.324 210.252 368.412 210.582C368.5 210.912 368.599 211.308 368.709 211.77C368.841 212.21 368.973 212.672 369.105 213.156C369.237 213.64 369.347 214.069 369.435 214.443C369.479 214.663 369.534 214.949 369.6 215.301C369.666 215.653 369.721 216.005 369.765 216.357C369.831 216.709 369.886 217.028 369.93 217.314C369.974 217.578 369.996 217.721 369.996 217.743C369.996 218.073 369.941 218.414 369.831 218.766C369.721 219.118 369.545 219.294 369.303 219.294C369.171 219.294 369.05 219.239 368.94 219.129C368.83 219.019 368.731 218.898 368.643 218.766C368.555 218.612 368.489 218.469 368.445 218.337C368.401 218.205 368.379 218.106 368.379 218.04C368.379 217.996 368.379 217.93 368.379 217.842C368.401 217.754 368.412 217.655 368.412 217.545C368.412 217.127 368.346 216.522 368.214 215.73C368.17 215.488 368.082 215.114 367.95 214.608C367.818 214.102 367.686 213.585 367.554 213.057C367.4 212.441 367.224 211.77 367.026 211.044C366.938 210.736 366.883 210.582 366.861 210.582C366.707 210.582 366.443 210.681 366.069 210.879C365.717 211.055 365.31 211.286 364.848 211.572C364.386 211.836 363.902 212.133 363.396 212.463C362.89 212.771 362.417 213.068 361.977 213.354C361.537 213.618 361.163 213.849 360.855 214.047C360.525 214.223 360.327 214.311 360.261 214.311C359.975 214.311 359.744 214.212 359.568 214.014C359.392 213.816 359.304 213.596 359.304 213.354C359.304 213.222 359.491 213.035 359.865 212.793C360.217 212.529 360.668 212.243 361.218 211.935C361.746 211.627 362.329 211.308 362.967 210.978C363.583 210.648 364.155 210.351 364.683 210.087C365.233 209.823 365.684 209.603 366.036 209.427C366.41 209.251 366.597 209.163 366.597 209.163C366.399 208.151 366.234 207.249 366.102 206.457C365.992 205.775 365.882 205.148 365.772 204.576C365.684 204.004 365.64 203.696 365.64 203.652C365.64 203.366 365.695 203.157 365.805 203.025C365.937 202.871 366.08 202.794 366.234 202.794C366.476 202.794 366.63 202.959 366.696 203.289C366.938 204.477 367.158 205.533 367.356 206.457C367.576 207.381 367.785 208.129 367.983 208.701C368.181 208.657 368.522 208.536 369.006 208.338C369.49 208.118 369.996 207.887 370.524 207.645C371.052 207.403 371.525 207.194 371.943 207.018C372.383 206.82 372.636 206.721 372.702 206.721C372.834 206.721 372.911 206.765 372.933 206.853C372.977 206.941 373.021 207.018 373.065 207.084Z" fill="#FEFEFE"/>
<path d="M370.227 227.872C370.227 228.356 370.161 228.818 370.029 229.258C369.897 229.698 369.721 230.083 369.501 230.413C369.281 230.743 369.017 231.007 368.709 231.205C368.423 231.381 368.104 231.469 367.752 231.469C367.136 231.469 366.652 231.293 366.3 230.941C365.948 230.589 365.673 230.182 365.475 229.72C365.299 229.258 365.178 228.796 365.112 228.334C365.068 227.85 365.046 227.487 365.046 227.245C365.046 226.849 365.101 226.409 365.211 225.925C365.343 225.419 365.508 224.957 365.706 224.539C365.926 224.121 366.168 223.769 366.432 223.483C366.696 223.197 366.971 223.054 367.257 223.054C367.323 223.054 367.422 223.076 367.554 223.12C367.708 223.164 367.862 223.23 368.016 223.318C368.17 223.406 368.302 223.516 368.412 223.648C368.544 223.78 368.632 223.934 368.676 224.11C368.918 224.132 369.16 224.22 369.402 224.374C369.644 224.528 369.776 224.649 369.798 224.737C369.974 225.309 370.084 225.881 370.128 226.453C370.194 227.025 370.227 227.498 370.227 227.872ZM368.742 227.278C368.742 226.948 368.709 226.607 368.643 226.255C368.577 225.881 368.445 225.507 368.247 225.133C368.203 225.155 368.148 225.166 368.082 225.166C367.994 225.166 367.917 225.155 367.851 225.133C367.807 225.111 367.763 225.1 367.719 225.1C367.455 225.1 367.246 225.177 367.092 225.331C366.938 225.463 366.817 225.65 366.729 225.892C366.663 226.112 366.619 226.354 366.597 226.618C366.575 226.882 366.564 227.135 366.564 227.377C366.564 227.619 366.575 227.894 366.597 228.202C366.619 228.488 366.663 228.763 366.729 229.027C366.817 229.291 366.927 229.522 367.059 229.72C367.191 229.896 367.367 229.984 367.587 229.984C367.807 229.984 367.994 229.874 368.148 229.654C368.302 229.412 368.423 229.137 368.511 228.829C368.599 228.521 368.654 228.224 368.676 227.938C368.72 227.63 368.742 227.41 368.742 227.278Z" fill="#FEFEFE"/>
<path d="M27.5125 241.885C27.104 241.803 26.7154 241.724 26.3483 241.648C26.7159 241.241 27.1145 240.801 27.5408 240.333C29.9702 237.667 33.2911 234.09 36.8644 230.442C40.444 226.786 44.2465 223.091 47.6441 220.17C49.3439 218.709 50.9108 217.469 52.275 216.533C53.6808 215.569 54.7112 215.04 55.3627 214.846C61.9288 212.895 69.877 217.625 72.5415 226.592C75.206 235.559 71.1305 243.862 64.5643 245.813C63.8596 246.023 62.6622 246.172 60.9498 246.205C59.2807 246.237 57.2813 246.157 55.0595 245.987C50.6183 245.648 45.4289 244.964 40.4819 244.19C35.5416 243.417 30.8816 242.561 27.5125 241.885Z" stroke="white" stroke-width="5"/>
<path d="M340.164 14.9789C340.534 14.8164 340.878 14.6687 341.192 14.5365C341.331 14.9822 341.485 15.482 341.649 16.0279C342.367 18.4108 343.284 21.6588 344.091 25.1348C344.9 28.6229 345.582 32.278 345.852 35.4916C346.132 38.8277 345.921 41.2367 345.325 42.536C342.485 48.7272 334.066 51.5673 326.13 47.9262C318.193 44.285 314.855 36.051 317.696 29.8598C318.299 28.5446 320.013 26.7598 322.738 24.7283C325.364 22.7708 328.592 20.8257 331.756 19.111C334.913 17.401 337.95 15.9509 340.164 14.9789Z" stroke="white" stroke-width="5"/>
<path d="M17.6081 244.5L344.946 10.6875V244.5H17.6081Z" stroke="white" stroke-width="11"/>
<path d="M138.036 126.74C138.1 126.829 138.107 126.933 138.056 127.051C138.023 127.156 137.966 127.265 137.885 127.378C137.822 127.478 137.756 127.593 137.687 127.724C137.606 127.837 137.558 127.939 137.543 128.031L138.638 129.154C139.247 129.773 139.825 130.387 140.372 130.995C140.938 131.591 141.433 132.183 141.858 132.772C142.192 133.236 142.441 133.694 142.604 134.146C142.773 134.567 142.732 134.868 142.482 135.048C142.357 135.138 142.132 135.07 141.806 134.844C141.485 134.587 141.147 134.288 140.793 133.947C140.443 133.575 140.109 133.206 139.79 132.839C139.476 132.442 139.255 132.154 139.126 131.975C139.036 131.851 138.886 131.661 138.675 131.406C138.451 131.133 138.212 130.858 137.957 130.581C137.69 130.285 137.442 130.017 137.213 129.775C136.972 129.515 136.791 129.32 136.67 129.19C136.379 129.427 136.001 129.767 135.535 130.212C135.056 130.639 134.513 131.221 133.905 131.957L134.137 132.279C134.42 132.671 134.753 133.095 135.136 133.551C135.507 133.99 135.89 134.446 136.286 134.919C136.687 135.363 137.085 135.821 137.481 136.295C137.865 136.751 138.217 137.202 138.539 137.648C138.668 137.826 138.753 137.982 138.794 138.115C138.849 138.266 138.813 138.386 138.688 138.476C138.474 138.63 138.228 138.646 137.948 138.522C137.687 138.385 137.426 138.193 137.167 137.946C136.895 137.681 136.625 137.401 136.357 137.106C136.108 136.797 135.897 136.543 135.725 136.341C135.319 135.929 134.87 135.439 134.379 134.871C133.893 134.272 133.4 133.664 132.901 133.048C132.83 133.099 132.728 133.146 132.595 133.187C132.449 133.211 132.304 133.235 132.158 133.258C132 133.264 131.859 133.257 131.736 133.237C131.613 133.217 131.52 133.163 131.455 133.074C131.301 132.86 131.277 132.619 131.383 132.353C131.476 132.068 131.607 131.798 131.774 131.542C131.64 131.394 131.509 131.231 131.381 131.052C131.239 130.856 131.001 130.526 130.666 130.062C130.525 129.866 130.319 129.58 130.049 129.206C129.765 128.813 129.45 128.376 129.103 127.894C128.742 127.395 128.35 126.85 127.925 126.262C127.518 125.66 127.096 125.056 126.658 124.449C126.573 124.293 126.495 124.092 126.425 123.844C126.342 123.578 126.381 123.388 126.542 123.272C126.666 123.182 126.812 123.158 126.979 123.201C127.132 123.226 127.287 123.29 127.444 123.394C127.6 123.498 127.745 123.624 127.879 123.772C128.018 123.889 128.125 124.001 128.203 124.108L132.817 130.505C132.977 130.389 133.185 130.226 133.44 130.015C133.694 129.804 133.958 129.586 134.231 129.363C134.49 129.121 134.741 128.886 134.983 128.657C135.243 128.416 135.449 128.213 135.602 128.048L130.932 122.872C130.824 122.76 130.71 122.639 130.589 122.509C130.486 122.366 130.402 122.25 130.338 122.161C130.081 121.804 129.919 121.486 129.854 121.208C129.794 120.899 129.862 120.673 130.058 120.532C130.308 120.352 130.543 120.358 130.764 120.552C130.985 120.745 131.265 121.058 131.605 121.491C131.829 121.764 132.052 122.037 132.276 122.309C132.487 122.564 132.707 122.812 132.935 123.054L136.814 127.133C137.028 126.979 137.255 126.842 137.495 126.724C137.739 126.574 137.92 126.58 138.036 126.74ZM138.614 119.203C138.64 119.238 138.629 119.355 138.581 119.552C138.533 119.749 138.465 119.974 138.377 120.228C138.294 120.451 138.195 120.671 138.081 120.889C137.967 121.107 137.856 121.255 137.749 121.332C137.678 121.383 137.58 121.454 137.455 121.544C137.335 121.604 137.193 121.651 137.029 121.688C136.884 121.712 136.734 121.711 136.581 121.686C136.414 121.644 136.273 121.542 136.157 121.381C135.977 121.132 135.899 120.835 135.923 120.492C135.934 120.132 136.082 119.849 136.368 119.643C136.421 119.604 136.557 119.547 136.774 119.472C136.996 119.366 137.231 119.278 137.478 119.208C137.726 119.138 137.954 119.096 138.161 119.082C138.386 119.055 138.537 119.095 138.614 119.203ZM146.717 128.575C146.807 128.7 146.786 128.878 146.654 129.109C146.54 129.327 146.439 129.468 146.35 129.532C146.171 129.661 145.927 129.661 145.617 129.532C145.307 129.403 144.989 129.225 144.663 128.999C144.337 128.773 144.042 128.552 143.778 128.336C143.5 128.102 143.305 127.944 143.192 127.863C143.01 127.723 142.784 127.56 142.515 127.375C142.245 127.189 141.982 127.013 141.726 126.845C141.487 126.665 141.277 126.505 141.095 126.365C140.912 126.225 140.815 126.146 140.802 126.128C140.622 125.878 140.499 125.614 140.434 125.336C140.386 125.045 140.434 124.847 140.577 124.744C140.737 124.629 140.997 124.631 141.356 124.752C141.714 124.873 142.115 125.072 142.559 125.349C143.008 125.595 143.471 125.898 143.948 126.259C144.413 126.603 144.846 126.941 145.25 127.274C145.64 127.589 145.971 127.879 146.243 128.144C146.521 128.378 146.679 128.522 146.717 128.575ZM153.083 115.724C153.418 116.187 153.605 116.73 153.647 117.351C153.706 117.96 153.683 118.586 153.579 119.231C153.461 119.859 153.296 120.494 153.081 121.136C152.854 121.762 152.637 122.325 152.429 122.827C152.253 123.335 152.106 123.752 151.99 124.08C151.874 124.408 151.848 124.617 151.912 124.706C152.08 124.938 152.345 125.248 152.707 125.638C153.056 126.01 153.447 126.42 153.879 126.868C154.316 127.285 154.756 127.727 155.201 128.193C155.663 128.646 156.067 129.074 156.411 129.476C156.424 129.494 156.491 129.568 156.612 129.698C156.75 129.815 156.902 129.95 157.066 130.102C157.249 130.242 157.4 130.377 157.521 130.507C157.672 130.642 157.761 130.727 157.787 130.763C157.877 130.888 157.965 131.028 158.05 131.183C158.165 131.344 158.242 131.506 158.278 131.67C158.346 131.838 158.367 131.999 158.342 132.153C158.317 132.306 158.233 132.435 158.09 132.537C157.894 132.679 157.687 132.693 157.469 132.579C157.264 132.482 157.104 132.354 156.988 132.193C156.962 132.158 156.936 132.122 156.911 132.086C156.903 132.038 156.879 131.987 156.841 131.933C156.699 131.737 156.248 131.262 155.488 130.509C154.727 129.755 153.827 128.845 152.786 127.778C151.758 126.729 150.684 125.578 149.563 124.325C148.429 123.054 147.425 121.812 146.549 120.599C146.485 120.51 146.423 120.405 146.364 120.285C146.292 120.148 146.223 120.034 146.159 119.945C145.993 120.091 145.784 120.365 145.53 120.765C145.294 121.152 145.083 121.575 144.899 122.034C144.701 122.475 144.553 122.907 144.452 123.332C144.357 123.727 144.374 124.013 144.502 124.192L144.315 124.327C144.261 124.365 144.173 124.375 144.05 124.355C143.91 124.348 143.78 124.319 143.662 124.268C143.527 124.231 143.4 124.186 143.282 124.136C143.164 124.085 143.092 124.042 143.067 124.006C142.796 123.632 142.768 123.123 142.983 122.48C143.184 121.819 143.525 121.126 144.005 120.4C144.49 119.643 145.083 118.904 145.782 118.182C146.47 117.442 147.17 116.815 147.884 116.3C148.58 115.798 149.217 115.46 149.797 115.286C150.395 115.099 150.92 115.019 151.373 115.045C151.813 115.053 152.179 115.128 152.471 115.27C152.763 115.412 152.967 115.563 153.083 115.724ZM151.714 116.589C151.585 116.411 151.233 116.393 150.658 116.537C150.071 116.662 149.474 116.944 148.867 117.381C148.332 117.767 147.952 118.068 147.728 118.284C147.504 118.5 147.36 118.658 147.297 118.758C147.467 119.069 147.685 119.428 147.95 119.833C148.215 120.238 148.496 120.646 148.792 121.057C149.101 121.485 149.412 121.898 149.726 122.295C150.045 122.662 150.319 122.966 150.547 123.208C150.681 122.868 150.866 122.409 151.101 121.832C151.341 121.225 151.553 120.598 151.737 119.95C151.908 119.284 152.01 118.654 152.043 118.061C152.081 117.437 151.971 116.946 151.714 116.589ZM160.78 113.142C161.064 113.534 161.28 113.947 161.431 114.381C161.581 114.815 161.664 115.231 161.678 115.627C161.693 116.023 161.633 116.392 161.499 116.733C161.37 117.043 161.163 117.301 160.877 117.507C160.378 117.867 159.882 118.007 159.391 117.928C158.9 117.848 158.438 117.679 158.008 117.42C157.595 117.149 157.226 116.845 156.902 116.509C156.583 116.142 156.353 115.86 156.212 115.664C155.98 115.343 155.767 114.954 155.573 114.497C155.384 114.009 155.248 113.538 155.164 113.083C155.098 112.615 155.088 112.188 155.135 111.802C155.182 111.416 155.321 111.139 155.553 110.971C155.607 110.933 155.7 110.893 155.833 110.851C155.983 110.797 156.147 110.76 156.323 110.742C156.5 110.723 156.671 110.735 156.837 110.778C157.022 110.807 157.183 110.881 157.322 110.998C157.531 110.874 157.779 110.804 158.065 110.787C158.351 110.77 158.529 110.791 158.599 110.85C159.076 111.211 159.5 111.61 159.87 112.049C160.258 112.474 160.562 112.838 160.78 113.142ZM159.229 113.528C159.036 113.261 158.809 113.004 158.55 112.757C158.277 112.492 157.952 112.266 157.572 112.078C157.549 112.122 157.511 112.163 157.458 112.202C157.386 112.253 157.318 112.289 157.251 112.31C157.203 112.318 157.16 112.335 157.125 112.361C156.911 112.515 156.786 112.7 156.751 112.915C156.704 113.112 156.715 113.334 156.785 113.582C156.86 113.799 156.966 114.021 157.103 114.248C157.239 114.475 157.379 114.687 157.52 114.883C157.662 115.079 157.831 115.296 158.029 115.533C158.215 115.752 158.411 115.949 158.619 116.125C158.845 116.287 159.069 116.41 159.292 116.494C159.502 116.559 159.696 116.528 159.875 116.399C160.053 116.27 160.141 116.072 160.137 115.803C160.12 115.517 160.057 115.223 159.949 114.922C159.84 114.62 159.711 114.347 159.561 114.102C159.417 113.827 159.306 113.636 159.229 113.528ZM166.027 99.7542C165.988 100.189 165.851 100.695 165.616 101.271C165.368 101.83 165.107 102.371 164.833 102.894C164.56 103.417 164.32 103.875 164.115 104.267C163.897 104.641 163.807 104.855 163.845 104.909C163.884 104.962 164.036 105.097 164.3 105.313C164.564 105.529 164.876 105.793 165.236 106.103C165.6 106.383 165.978 106.68 166.368 106.995C166.758 107.311 167.098 107.594 167.388 107.846C167.553 107.999 167.765 108.199 168.024 108.445C168.284 108.692 168.534 108.946 168.776 109.205C169.035 109.452 169.266 109.679 169.469 109.885C169.66 110.073 169.761 110.177 169.774 110.194C169.967 110.462 170.122 110.771 170.239 111.121C170.355 111.47 170.315 111.716 170.119 111.858C170.012 111.935 169.882 111.961 169.728 111.936C169.575 111.911 169.424 111.871 169.275 111.816C169.114 111.742 168.976 111.665 168.863 111.583C168.751 111.502 168.675 111.435 168.636 111.381C168.61 111.346 168.572 111.292 168.52 111.221C168.487 111.136 168.438 111.05 168.373 110.96C168.129 110.621 167.721 110.169 167.151 109.604C166.974 109.434 166.684 109.182 166.281 108.849C165.877 108.516 165.468 108.173 165.052 107.822C164.567 107.413 164.031 106.972 163.446 106.499C163.195 106.3 163.06 106.208 163.042 106.221C162.917 106.311 162.761 106.545 162.573 106.925C162.391 107.273 162.196 107.699 161.989 108.201C161.768 108.686 161.55 109.21 161.332 109.773C161.102 110.319 160.892 110.837 160.703 111.326C160.5 111.797 160.332 112.204 160.198 112.544C160.033 112.88 159.924 113.067 159.871 113.106C159.639 113.273 159.394 113.328 159.135 113.27C158.876 113.213 158.676 113.086 158.535 112.89C158.458 112.783 158.5 112.522 158.662 112.106C158.793 111.686 158.991 111.191 159.257 110.619C159.505 110.06 159.791 109.461 160.116 108.82C160.422 108.192 160.712 107.616 160.986 107.093C161.278 106.557 161.515 106.115 161.697 105.766C161.898 105.405 161.998 105.224 161.998 105.224C161.245 104.519 160.584 103.884 160.013 103.319C159.525 102.83 159.069 102.386 158.645 101.987C158.239 101.574 158.023 101.35 157.998 101.314C157.83 101.083 157.753 100.881 157.765 100.709C157.782 100.507 157.853 100.361 157.978 100.271C158.174 100.13 158.395 100.173 158.642 100.402C159.533 101.224 160.329 101.952 161.03 102.586C161.749 103.206 162.356 103.691 162.852 104.039C162.986 103.887 163.192 103.59 163.469 103.146C163.733 102.684 164.008 102.201 164.295 101.696C164.581 101.191 164.843 100.744 165.079 100.357C165.32 99.9391 165.467 99.7108 165.521 99.6722C165.628 99.595 165.716 99.5856 165.785 99.6441C165.872 99.6897 165.953 99.7264 166.027 99.7542ZM181.621 102.625C181.664 102.648 181.712 102.695 181.763 102.767C181.841 102.874 181.876 103.092 181.87 103.422C181.868 103.532 181.836 103.732 181.773 104.021C181.711 104.31 181.585 104.645 181.398 105.024C181.21 105.404 180.939 105.817 180.583 106.263C180.245 106.697 179.781 107.126 179.192 107.551C178.782 107.847 178.316 108.047 177.795 108.152C177.261 108.239 176.713 108.213 176.153 108.075C175.579 107.919 175.001 107.645 174.419 107.251C173.823 106.839 173.262 106.268 172.734 105.536C172.232 104.84 171.852 104.125 171.593 103.389C171.334 102.654 171.17 101.958 171.103 101.301C171.054 100.631 171.103 100.04 171.249 99.5279C171.395 99.0157 171.628 98.6438 171.949 98.4121C172.235 98.2062 172.565 98.0628 172.941 97.9817C173.322 97.87 173.692 97.8197 174.053 97.8308C174.431 97.829 174.776 97.8927 175.086 98.0216C175.383 98.1328 175.615 98.3044 175.782 98.5363C175.975 98.8039 176.05 99.1706 176.006 99.6363C175.98 100.089 175.888 100.563 175.729 101.057C175.557 101.533 175.36 101.974 175.137 102.379C174.9 102.767 174.684 103.031 174.488 103.173C174.381 103.25 174.251 103.276 174.097 103.251C173.949 103.196 173.823 103.096 173.72 102.954C173.54 102.704 173.505 102.43 173.616 102.133C173.745 101.823 173.905 101.518 174.095 101.218C174.273 100.9 174.411 100.584 174.509 100.269C174.625 99.9406 174.58 99.6339 174.374 99.3484C174.349 99.3128 174.24 99.2557 174.048 99.1773C173.855 99.0989 173.563 99.2013 173.17 99.4845C172.992 99.6132 172.864 99.8682 172.787 100.25C172.696 100.613 172.673 101.051 172.716 101.562C172.746 102.055 172.864 102.594 173.069 103.179C173.261 103.746 173.556 104.306 173.955 104.859C174.29 105.323 174.672 105.684 175.103 105.943C175.552 106.189 176.007 106.35 176.467 106.424C176.915 106.481 177.369 106.452 177.829 106.337C178.289 106.223 178.706 106.03 179.08 105.76C179.348 105.567 179.595 105.307 179.821 104.982C180.052 104.625 180.256 104.288 180.434 103.97C180.617 103.621 180.767 103.323 180.886 103.074C181.01 102.795 181.099 102.636 181.153 102.597C181.206 102.558 181.279 102.546 181.371 102.561C181.481 102.563 181.564 102.585 181.621 102.625ZM191.193 94.9886C191.27 95.0956 191.312 95.2284 191.318 95.3869C191.323 95.5455 191.305 95.708 191.262 95.8744C191.237 96.028 191.188 96.1855 191.115 96.3469C191.046 96.4777 190.968 96.5752 190.878 96.6396C190.575 96.8584 190.137 97.0791 189.566 97.3017C188.999 97.4936 188.47 97.5497 187.978 97.4702C187.456 97.3856 186.931 97.2218 186.403 96.9788C185.862 96.7179 185.153 96.28 184.276 95.6651C184.646 96.5918 184.973 97.5353 185.259 98.4955C185.563 99.443 185.661 100.444 185.553 101.498C185.543 101.559 185.503 101.616 185.431 101.667C185.306 101.757 185.127 101.791 184.895 101.77C184.662 101.748 184.5 101.674 184.41 101.549C184.32 101.424 184.096 101.152 183.739 100.731C183.387 100.28 182.993 99.7912 182.558 99.2638C182.111 98.7186 181.663 98.1734 181.216 97.6281C180.773 97.0522 180.417 96.5769 180.146 96.2022C180.018 96.0238 179.859 95.7854 179.671 95.487C179.47 95.1708 179.337 94.8735 179.272 94.595C179.264 94.5465 179.275 94.4301 179.305 94.2458C179.353 94.0486 179.448 93.8986 179.591 93.7956C179.715 93.7055 179.845 93.7343 179.978 93.8821C180.112 94.0298 180.25 94.2018 180.391 94.398L183.441 98.6267C183.506 98.7159 183.605 98.8344 183.739 98.9821C183.89 99.117 184.018 99.2008 184.123 99.2335C184.011 98.6637 183.829 98.0354 183.578 97.3486C183.331 96.6311 183.102 95.9557 182.889 95.3225C182.664 94.6714 182.502 94.1095 182.406 93.6368C182.296 93.1463 182.321 92.8431 182.482 92.7273C182.66 92.5986 182.829 92.5313 182.987 92.5254C183.146 92.5196 183.338 92.598 183.564 92.7606C184.026 93.2137 184.432 93.6261 184.782 93.9979C185.119 94.3518 185.438 94.6636 185.741 94.9333C186.062 95.1901 186.397 95.4098 186.746 95.5923C187.099 95.7441 187.494 95.8395 187.929 95.8784C188.346 95.9301 188.745 95.9002 189.125 95.7884C189.523 95.6638 189.839 95.5178 190.071 95.3505C190.178 95.2733 190.281 95.1718 190.38 95.046C190.466 94.9024 190.536 94.8113 190.59 94.7727C190.661 94.7212 190.769 94.7386 190.912 94.8249C191.074 94.8983 191.167 94.9529 191.193 94.9886ZM200.548 86.4909C200.664 86.6514 200.679 86.8982 200.594 87.231C200.508 87.5639 200.381 87.9136 200.211 88.2801C200.029 88.6288 199.824 88.966 199.598 89.2919C199.39 89.6048 199.215 89.8128 199.072 89.9158C198.911 90.0316 198.701 90.1157 198.44 90.1681C198.197 90.2075 197.942 90.2292 197.673 90.233C197.422 90.2239 197.196 90.2109 196.994 90.194C196.792 90.177 196.66 90.1635 196.599 90.1536C196.584 90.2457 196.581 90.4107 196.589 90.6485C196.598 90.8863 196.593 91.1613 196.574 91.4734C196.56 91.7547 196.515 92.0312 196.44 92.3026C196.382 92.5612 196.264 92.7548 196.086 92.8835C195.622 93.2181 195.04 93.2579 194.341 93.0029C193.641 92.7478 192.944 92.3828 192.249 91.9077C191.571 91.4198 190.958 90.9265 190.408 90.4278C189.863 89.8984 189.514 89.5266 189.36 89.3125C189.269 89.1876 189.261 89.0444 189.334 88.883C189.413 88.6908 189.488 88.569 189.559 88.5175C189.809 88.3373 190.043 88.3043 190.261 88.4183C190.466 88.5146 190.639 88.6608 190.781 88.8571C190.896 89.0177 191.147 89.271 191.532 89.617C191.935 89.9502 192.363 90.2794 192.814 90.6046C193.266 90.9299 193.694 91.2041 194.099 91.4273C194.492 91.6326 194.75 91.6903 194.875 91.6002C195.107 91.4329 195.2 91.1485 195.155 90.7472C195.115 90.3152 195.013 89.8732 194.85 89.4213C194.674 88.9516 194.49 88.5279 194.299 88.1502C194.095 87.7548 193.955 87.5035 193.877 87.3965C193.864 87.3786 193.826 87.3251 193.762 87.2359C193.702 87.116 193.643 86.996 193.583 86.8761C193.524 86.7562 193.462 86.6516 193.398 86.5624C193.351 86.4603 193.315 86.3914 193.289 86.3557C193.199 86.2308 193.115 86.1699 193.035 86.1728C192.943 86.1579 192.846 86.079 192.743 85.9363C192.666 85.8292 192.648 85.6925 192.691 85.5261C192.721 85.3418 192.914 85.1209 193.271 84.8635C193.414 84.7606 193.553 84.728 193.689 84.7657C193.829 84.7727 193.956 84.8169 194.069 84.8982C194.182 84.9795 194.277 85.0737 194.354 85.1808C194.436 85.2571 194.49 85.3131 194.516 85.3488C194.529 85.3666 194.61 85.498 194.76 85.7428C194.909 85.9876 195.078 86.2592 195.266 86.5576C195.459 86.8252 195.637 87.0904 195.799 87.353C195.961 87.6157 196.062 87.7738 196.101 87.8273C196.139 87.8808 196.243 87.9686 196.412 88.0906C196.582 88.2125 196.767 88.337 196.967 88.4639C197.172 88.5602 197.379 88.6411 197.589 88.7066C197.786 88.7543 197.947 88.733 198.072 88.643C198.286 88.4885 198.463 88.3202 198.603 88.1379C198.748 87.925 198.875 87.7249 198.984 87.5377C199.098 87.3198 199.207 87.1326 199.311 86.9761C199.403 86.8018 199.511 86.6696 199.636 86.5795C199.796 86.4637 199.965 86.3964 200.141 86.3777C200.335 86.3461 200.471 86.3838 200.548 86.4909ZM208.301 82.2822C208.52 82.5855 208.606 82.9304 208.559 83.3168C208.517 83.6725 208.393 84.0465 208.188 84.4387C207.988 84.8002 207.732 85.1607 207.422 85.5202C207.112 85.8797 206.806 86.2085 206.506 86.5066C206.193 86.7868 205.909 87.0323 205.654 87.2432C205.404 87.4234 205.243 87.5392 205.172 87.5907C204.779 87.8739 204.431 88.0302 204.127 88.0597C203.823 88.0893 203.555 87.9435 203.323 87.6223C203.246 87.5153 203.19 87.4196 203.157 87.3354C203.11 87.2333 203.149 87.1372 203.274 87.0471C203.328 87.0085 203.43 86.962 203.581 86.9076C203.718 86.8353 203.823 86.7735 203.894 86.722C203.966 86.6705 204.182 86.5007 204.544 86.2126C204.911 85.8938 205.283 85.5442 205.659 85.164C206.054 84.7708 206.376 84.3896 206.625 84.0201C206.879 83.62 206.928 83.3129 206.774 83.0988C206.748 83.0631 206.484 83.0911 205.98 83.183C205.482 83.2441 204.706 83.3155 203.653 83.3971C202.824 83.4521 202.165 83.3848 201.676 83.1953C201.174 82.9879 200.697 82.572 200.247 81.9475C199.964 81.5549 199.812 81.1759 199.793 80.8102C199.791 80.4317 199.881 80.0682 200.064 79.7195C200.264 79.358 200.533 79.0153 200.869 78.6915C201.21 78.337 201.594 78.0053 202.023 77.6964C202.058 77.6707 202.178 77.6113 202.382 77.5183C202.604 77.4124 202.855 77.3268 203.133 77.2616C203.399 77.1785 203.657 77.1415 203.907 77.1506C204.163 77.1289 204.342 77.1895 204.445 77.3322C204.471 77.3679 204.474 77.4472 204.454 77.57C204.452 77.68 204.451 77.8846 204.449 78.1838C204.383 78.2046 204.266 78.2486 204.097 78.3159C203.946 78.3703 203.769 78.444 203.565 78.537C203.366 78.5993 203.17 78.6859 202.979 78.7968C202.775 78.8898 202.619 78.9749 202.512 79.0521C202.048 79.3868 201.738 79.7462 201.581 80.1306C201.412 80.4971 201.5 80.9212 201.848 81.403C202.015 81.6349 202.259 81.7847 202.579 81.8523C202.917 81.907 203.293 81.9206 203.707 81.8931C204.108 81.8477 204.534 81.7984 204.984 81.7452C205.439 81.6613 205.88 81.6144 206.307 81.6048C206.734 81.5951 207.12 81.6419 207.466 81.7452C207.817 81.8177 208.095 81.9967 208.301 82.2822ZM221.836 69.4267C222.068 69.7478 222.206 70.2587 222.25 70.9592C222.299 71.6291 222.235 72.3672 222.057 73.1736C221.879 73.9801 221.576 74.782 221.147 75.5793C220.706 76.3588 220.128 77.006 219.415 77.5208C219.093 77.7525 218.716 77.9435 218.282 78.0938C217.848 78.2442 217.39 78.3435 216.91 78.3917C216.416 78.4222 215.933 78.3912 215.459 78.2987C214.973 78.1885 214.532 77.991 214.137 77.7064C214.107 77.8907 214.102 78.1656 214.121 78.5313C214.159 78.884 214.185 79.2586 214.199 79.6549C214.201 80.0334 214.166 80.398 214.093 80.7487C214.008 81.0816 213.849 81.3317 213.617 81.499C213.385 81.6663 213.105 81.6919 212.777 81.5758C212.455 81.429 212.146 81.245 211.85 81.0238C211.542 80.7849 211.274 80.5444 211.045 80.3025C210.817 80.0606 210.689 79.9218 210.664 79.8862C210.509 79.672 210.282 79.2255 209.982 78.5466C209.67 77.8499 209.406 77.0903 209.193 76.2678C208.979 75.4452 208.88 74.6491 208.894 73.8792C208.926 73.0964 209.201 72.5185 209.718 72.1452C209.915 72.0037 210.104 72.0028 210.286 72.1426C210.473 72.2517 210.625 72.3865 210.741 72.5471L211.32 73.35C211.461 73.3571 211.588 73.3462 211.703 73.3176C211.823 73.2582 211.938 73.2295 212.048 73.2316C212.163 73.2029 212.271 73.2203 212.371 73.2838C212.489 73.3344 212.618 73.4578 212.76 73.6541C212.85 73.779 212.925 73.9014 212.984 74.0213C213.031 74.1234 213.086 74.2191 213.15 74.3083C213.485 74.7722 213.849 75.2014 214.242 75.596C214.635 75.9906 215.067 76.2891 215.539 76.4915C215.998 76.6761 216.498 76.7492 217.04 76.7109C217.569 76.6547 218.146 76.4014 218.77 75.9509C219.555 75.3847 220.1 74.7479 220.403 74.0406C220.712 73.3026 220.903 72.6087 220.977 71.9587C221.056 71.2781 221.086 70.6999 221.069 70.2243C221.038 69.7309 221.094 69.4327 221.237 69.3297C221.469 69.1624 221.669 69.1947 221.836 69.4267ZM211.592 75.0252C211.541 74.9538 211.478 74.9043 211.404 74.8765C211.317 74.8308 211.254 74.7813 211.215 74.7277C211.164 74.6564 211.136 74.581 211.133 74.5018C211.131 74.4225 211.097 74.3383 211.033 74.249C210.994 74.1955 210.95 74.1727 210.902 74.1806C210.84 74.1707 210.797 74.1478 210.771 74.1122C210.636 74.2637 210.576 74.5376 210.591 74.9339C210.623 75.3174 210.688 75.7455 210.785 76.2182C210.899 76.678 211.047 77.1274 211.228 77.5665C211.396 77.9877 211.564 78.3142 211.732 78.5462C211.822 78.6711 212.005 78.8505 212.283 79.0845C212.56 79.3185 212.775 79.448 212.929 79.4728C212.782 78.6296 212.621 77.8234 212.446 77.0544C212.289 76.2726 212.004 75.5962 211.592 75.0252Z" fill="#FEFEFE"/>
<path d="M109.741 271.443C109.741 271.751 109.653 272.07 109.477 272.4C109.323 272.73 109.125 273.06 108.883 273.39C108.641 273.72 108.377 274.039 108.091 274.347C107.805 274.633 107.541 274.886 107.299 275.106C106.705 275.634 106.089 276.14 105.451 276.624C104.835 277.086 104.186 277.504 103.504 277.878C102.844 278.252 102.151 278.549 101.425 278.769C100.699 278.989 99.94 279.099 99.148 279.099C96.75 279.099 95.551 277.867 95.551 275.403C95.551 275.161 95.65 274.688 95.848 273.984C96.046 273.28 96.299 272.477 96.607 271.575C96.915 270.673 97.278 269.727 97.696 268.737C98.114 267.747 98.543 266.845 98.983 266.031C99.423 265.195 99.852 264.513 100.27 263.985C100.71 263.457 101.117 263.193 101.491 263.193C101.733 263.193 101.909 263.27 102.019 263.424C102.151 263.578 102.217 263.743 102.217 263.919C102.195 264.051 102.041 264.337 101.755 264.777C101.469 265.195 101.172 265.624 100.864 266.064C100.82 266.13 100.743 266.24 100.633 266.394C100.523 266.548 100.413 266.702 100.303 266.856C100.171 267.032 100.039 267.219 99.907 267.417C99.819 267.571 99.621 267.967 99.313 268.605C99.027 269.221 98.719 269.947 98.389 270.783C98.059 271.597 97.762 272.455 97.498 273.357C97.234 274.237 97.102 275.007 97.102 275.667C97.102 276.041 97.179 276.338 97.333 276.558C97.509 276.778 97.707 276.943 97.927 277.053C98.169 277.163 98.411 277.24 98.653 277.284C98.917 277.306 99.148 277.317 99.346 277.317C100.16 277.317 101.018 277.141 101.92 276.789C102.844 276.415 103.724 275.931 104.56 275.337C105.396 274.743 106.166 274.061 106.87 273.291C107.574 272.499 108.124 271.685 108.52 270.849C108.608 270.695 108.696 270.596 108.784 270.552C108.894 270.508 108.993 270.486 109.081 270.486C109.257 270.486 109.411 270.607 109.543 270.849C109.675 271.091 109.741 271.289 109.741 271.443ZM128.236 272.136C128.236 272.532 128.049 273.027 127.675 273.621C127.323 274.193 126.839 274.754 126.223 275.304C125.607 275.854 124.892 276.327 124.078 276.723C123.264 277.097 122.417 277.284 121.537 277.284C121.141 277.284 120.723 277.218 120.283 277.086C119.843 276.954 119.414 276.767 118.996 276.525C118.578 276.261 118.204 275.953 117.874 275.601C117.544 275.227 117.302 274.809 117.148 274.347C117.016 274.479 116.851 274.699 116.653 275.007C116.477 275.315 116.279 275.634 116.059 275.964C115.839 276.272 115.597 276.547 115.333 276.789C115.069 277.009 114.794 277.119 114.508 277.119C114.222 277.119 113.98 276.976 113.782 276.69C113.606 276.382 113.463 276.052 113.353 275.7C113.243 275.326 113.166 274.974 113.122 274.644C113.078 274.314 113.056 274.127 113.056 274.083C113.056 273.819 113.133 273.324 113.287 272.598C113.441 271.85 113.672 271.08 113.98 270.288C114.288 269.496 114.673 268.792 115.135 268.176C115.619 267.56 116.18 267.252 116.818 267.252C117.06 267.252 117.214 267.362 117.28 267.582C117.368 267.78 117.412 267.978 117.412 268.176V269.166C117.522 269.254 117.632 269.32 117.742 269.364C117.874 269.386 117.984 269.43 118.072 269.496C118.182 269.54 118.259 269.617 118.303 269.727C118.369 269.837 118.402 270.013 118.402 270.255C118.402 270.409 118.391 270.552 118.369 270.684C118.347 270.794 118.336 270.904 118.336 271.014C118.336 271.586 118.38 272.147 118.468 272.697C118.556 273.247 118.732 273.742 118.996 274.182C119.26 274.6 119.623 274.952 120.085 275.238C120.547 275.502 121.163 275.634 121.933 275.634C122.901 275.634 123.715 275.436 124.375 275.04C125.057 274.622 125.618 274.171 126.058 273.687C126.52 273.181 126.883 272.73 127.147 272.334C127.411 271.916 127.631 271.707 127.807 271.707C128.093 271.707 128.236 271.85 128.236 272.136ZM116.653 270.684C116.653 270.596 116.631 270.519 116.587 270.453C116.543 270.365 116.521 270.288 116.521 270.222C116.521 270.134 116.543 270.057 116.587 269.991C116.631 269.925 116.653 269.837 116.653 269.727C116.653 269.661 116.631 269.617 116.587 269.595C116.543 269.551 116.521 269.507 116.521 269.463C116.323 269.507 116.114 269.694 115.894 270.024C115.696 270.354 115.498 270.739 115.3 271.179C115.124 271.619 114.981 272.07 114.871 272.532C114.761 272.972 114.706 273.335 114.706 273.621C114.706 273.775 114.75 274.028 114.838 274.38C114.926 274.732 115.025 274.963 115.135 275.073C115.509 274.303 115.85 273.555 116.158 272.829C116.488 272.103 116.653 271.388 116.653 270.684ZM137.387 264.084C137.101 264.414 136.694 264.744 136.166 265.074C135.638 265.382 135.11 265.668 134.582 265.932C134.054 266.196 133.592 266.427 133.196 266.625C132.8 266.801 132.602 266.922 132.602 266.988C132.602 267.054 132.646 267.252 132.734 267.582C132.822 267.912 132.921 268.308 133.031 268.77C133.163 269.21 133.295 269.672 133.427 270.156C133.559 270.64 133.669 271.069 133.757 271.443C133.801 271.663 133.856 271.949 133.922 272.301C133.988 272.653 134.043 273.005 134.087 273.357C134.153 273.709 134.208 274.028 134.252 274.314C134.296 274.578 134.318 274.721 134.318 274.743C134.318 275.073 134.263 275.414 134.153 275.766C134.043 276.118 133.867 276.294 133.625 276.294C133.493 276.294 133.372 276.239 133.262 276.129C133.152 276.019 133.053 275.898 132.965 275.766C132.877 275.612 132.811 275.469 132.767 275.337C132.723 275.205 132.701 275.106 132.701 275.04C132.701 274.996 132.701 274.93 132.701 274.842C132.723 274.754 132.734 274.655 132.734 274.545C132.734 274.127 132.668 273.522 132.536 272.73C132.492 272.488 132.404 272.114 132.272 271.608C132.14 271.102 132.008 270.585 131.876 270.057C131.722 269.441 131.546 268.77 131.348 268.044C131.26 267.736 131.205 267.582 131.183 267.582C131.029 267.582 130.765 267.681 130.391 267.879C130.039 268.055 129.632 268.286 129.17 268.572C128.708 268.836 128.224 269.133 127.718 269.463C127.212 269.771 126.739 270.068 126.299 270.354C125.859 270.618 125.485 270.849 125.177 271.047C124.847 271.223 124.649 271.311 124.583 271.311C124.297 271.311 124.066 271.212 123.89 271.014C123.714 270.816 123.626 270.596 123.626 270.354C123.626 270.222 123.813 270.035 124.187 269.793C124.539 269.529 124.99 269.243 125.54 268.935C126.068 268.627 126.651 268.308 127.289 267.978C127.905 267.648 128.477 267.351 129.005 267.087C129.555 266.823 130.006 266.603 130.358 266.427C130.732 266.251 130.919 266.163 130.919 266.163C130.721 265.151 130.556 264.249 130.424 263.457C130.314 262.775 130.204 262.148 130.094 261.576C130.006 261.004 129.962 260.696 129.962 260.652C129.962 260.366 130.017 260.157 130.127 260.025C130.259 259.871 130.402 259.794 130.556 259.794C130.798 259.794 130.952 259.959 131.018 260.289C131.26 261.477 131.48 262.533 131.678 263.457C131.898 264.381 132.107 265.129 132.305 265.701C132.503 265.657 132.844 265.536 133.328 265.338C133.812 265.118 134.318 264.887 134.846 264.645C135.374 264.403 135.847 264.194 136.265 264.018C136.705 263.82 136.958 263.721 137.024 263.721C137.156 263.721 137.233 263.765 137.255 263.853C137.299 263.941 137.343 264.018 137.387 264.084ZM148.354 275.535C148.376 275.579 148.387 275.645 148.387 275.733C148.387 275.865 148.288 276.063 148.09 276.327C148.024 276.415 147.881 276.558 147.661 276.756C147.441 276.954 147.144 277.152 146.77 277.35C146.396 277.548 145.934 277.724 145.384 277.878C144.856 278.032 144.229 278.109 143.503 278.109C142.997 278.109 142.502 277.999 142.018 277.779C141.534 277.537 141.105 277.196 140.731 276.756C140.357 276.294 140.049 275.733 139.807 275.073C139.565 274.391 139.444 273.599 139.444 272.697C139.444 271.839 139.554 271.036 139.774 270.288C139.994 269.54 140.269 268.88 140.599 268.308C140.951 267.736 141.336 267.285 141.754 266.955C142.172 266.625 142.579 266.46 142.975 266.46C143.327 266.46 143.679 266.537 144.031 266.691C144.405 266.823 144.735 266.999 145.021 267.219C145.329 267.439 145.571 267.692 145.747 267.978C145.923 268.242 146.011 268.517 146.011 268.803C146.011 269.133 145.857 269.474 145.549 269.826C145.263 270.178 144.911 270.508 144.493 270.816C144.075 271.102 143.657 271.344 143.239 271.542C142.821 271.718 142.491 271.806 142.249 271.806C142.117 271.806 141.996 271.751 141.886 271.641C141.798 271.509 141.754 271.355 141.754 271.179C141.754 270.871 141.886 270.629 142.15 270.453C142.436 270.277 142.744 270.123 143.074 269.991C143.404 269.837 143.701 269.661 143.965 269.463C144.251 269.265 144.394 268.99 144.394 268.638C144.394 268.594 144.339 268.484 144.229 268.308C144.119 268.132 143.822 268.044 143.338 268.044C143.118 268.044 142.865 268.176 142.579 268.44C142.293 268.682 142.018 269.023 141.754 269.463C141.49 269.881 141.27 270.387 141.094 270.981C140.918 271.553 140.83 272.18 140.83 272.862C140.83 273.434 140.929 273.951 141.127 274.413C141.347 274.875 141.622 275.271 141.952 275.601C142.282 275.909 142.667 276.151 143.107 276.327C143.547 276.503 143.998 276.591 144.46 276.591C144.79 276.591 145.142 276.525 145.516 276.393C145.912 276.239 146.275 276.085 146.605 275.931C146.957 275.755 147.254 275.601 147.496 275.469C147.76 275.315 147.925 275.238 147.991 275.238C148.057 275.238 148.123 275.271 148.189 275.337C148.277 275.403 148.332 275.469 148.354 275.535ZM159.43 264.084C159.144 264.414 158.737 264.744 158.209 265.074C157.681 265.382 157.153 265.668 156.625 265.932C156.097 266.196 155.635 266.427 155.239 266.625C154.843 266.801 154.645 266.922 154.645 266.988C154.645 267.054 154.689 267.252 154.777 267.582C154.865 267.912 154.964 268.308 155.074 268.77C155.206 269.21 155.338 269.672 155.47 270.156C155.602 270.64 155.712 271.069 155.8 271.443C155.844 271.663 155.899 271.949 155.965 272.301C156.031 272.653 156.086 273.005 156.13 273.357C156.196 273.709 156.251 274.028 156.295 274.314C156.339 274.578 156.361 274.721 156.361 274.743C156.361 275.073 156.306 275.414 156.196 275.766C156.086 276.118 155.91 276.294 155.668 276.294C155.536 276.294 155.415 276.239 155.305 276.129C155.195 276.019 155.096 275.898 155.008 275.766C154.92 275.612 154.854 275.469 154.81 275.337C154.766 275.205 154.744 275.106 154.744 275.04C154.744 274.996 154.744 274.93 154.744 274.842C154.766 274.754 154.777 274.655 154.777 274.545C154.777 274.127 154.711 273.522 154.579 272.73C154.535 272.488 154.447 272.114 154.315 271.608C154.183 271.102 154.051 270.585 153.919 270.057C153.765 269.441 153.589 268.77 153.391 268.044C153.303 267.736 153.248 267.582 153.226 267.582C153.072 267.582 152.808 267.681 152.434 267.879C152.082 268.055 151.675 268.286 151.213 268.572C150.751 268.836 150.267 269.133 149.761 269.463C149.255 269.771 148.782 270.068 148.342 270.354C147.902 270.618 147.528 270.849 147.22 271.047C146.89 271.223 146.692 271.311 146.626 271.311C146.34 271.311 146.109 271.212 145.933 271.014C145.757 270.816 145.669 270.596 145.669 270.354C145.669 270.222 145.856 270.035 146.23 269.793C146.582 269.529 147.033 269.243 147.583 268.935C148.111 268.627 148.694 268.308 149.332 267.978C149.948 267.648 150.52 267.351 151.048 267.087C151.598 266.823 152.049 266.603 152.401 266.427C152.775 266.251 152.962 266.163 152.962 266.163C152.764 265.151 152.599 264.249 152.467 263.457C152.357 262.775 152.247 262.148 152.137 261.576C152.049 261.004 152.005 260.696 152.005 260.652C152.005 260.366 152.06 260.157 152.17 260.025C152.302 259.871 152.445 259.794 152.599 259.794C152.841 259.794 152.995 259.959 153.061 260.289C153.303 261.477 153.523 262.533 153.721 263.457C153.941 264.381 154.15 265.129 154.348 265.701C154.546 265.657 154.887 265.536 155.371 265.338C155.855 265.118 156.361 264.887 156.889 264.645C157.417 264.403 157.89 264.194 158.308 264.018C158.748 263.82 159.001 263.721 159.067 263.721C159.199 263.721 159.276 263.765 159.298 263.853C159.342 263.941 159.386 264.018 159.43 264.084ZM167.13 271.872C167.13 272.356 167.064 272.818 166.932 273.258C166.8 273.698 166.624 274.083 166.404 274.413C166.184 274.743 165.92 275.007 165.612 275.205C165.326 275.381 165.007 275.469 164.655 275.469C164.039 275.469 163.555 275.293 163.203 274.941C162.851 274.589 162.576 274.182 162.378 273.72C162.202 273.258 162.081 272.796 162.015 272.334C161.971 271.85 161.949 271.487 161.949 271.245C161.949 270.849 162.004 270.409 162.114 269.925C162.246 269.419 162.411 268.957 162.609 268.539C162.829 268.121 163.071 267.769 163.335 267.483C163.599 267.197 163.874 267.054 164.16 267.054C164.226 267.054 164.325 267.076 164.457 267.12C164.611 267.164 164.765 267.23 164.919 267.318C165.073 267.406 165.205 267.516 165.315 267.648C165.447 267.78 165.535 267.934 165.579 268.11C165.821 268.132 166.063 268.22 166.305 268.374C166.547 268.528 166.679 268.649 166.701 268.737C166.877 269.309 166.987 269.881 167.031 270.453C167.097 271.025 167.13 271.498 167.13 271.872ZM165.645 271.278C165.645 270.948 165.612 270.607 165.546 270.255C165.48 269.881 165.348 269.507 165.15 269.133C165.106 269.155 165.051 269.166 164.985 269.166C164.897 269.166 164.82 269.155 164.754 269.133C164.71 269.111 164.666 269.1 164.622 269.1C164.358 269.1 164.149 269.177 163.995 269.331C163.841 269.463 163.72 269.65 163.632 269.892C163.566 270.112 163.522 270.354 163.5 270.618C163.478 270.882 163.467 271.135 163.467 271.377C163.467 271.619 163.478 271.894 163.5 272.202C163.522 272.488 163.566 272.763 163.632 273.027C163.72 273.291 163.83 273.522 163.962 273.72C164.094 273.896 164.27 273.984 164.49 273.984C164.71 273.984 164.897 273.874 165.051 273.654C165.205 273.412 165.326 273.137 165.414 272.829C165.502 272.521 165.557 272.224 165.579 271.938C165.623 271.63 165.645 271.41 165.645 271.278ZM199.811 272.136C199.811 272.532 199.624 273.027 199.25 273.621C198.898 274.193 198.414 274.754 197.798 275.304C197.182 275.854 196.467 276.327 195.653 276.723C194.839 277.097 193.992 277.284 193.112 277.284C192.716 277.284 192.298 277.218 191.858 277.086C191.418 276.954 190.989 276.767 190.571 276.525C190.153 276.261 189.779 275.953 189.449 275.601C189.119 275.227 188.877 274.809 188.723 274.347C188.591 274.479 188.426 274.699 188.228 275.007C188.052 275.315 187.854 275.634 187.634 275.964C187.414 276.272 187.172 276.547 186.908 276.789C186.644 277.009 186.369 277.119 186.083 277.119C185.797 277.119 185.555 276.976 185.357 276.69C185.181 276.382 185.038 276.052 184.928 275.7C184.818 275.326 184.741 274.974 184.697 274.644C184.653 274.314 184.631 274.127 184.631 274.083C184.631 273.819 184.708 273.324 184.862 272.598C185.016 271.85 185.247 271.08 185.555 270.288C185.863 269.496 186.248 268.792 186.71 268.176C187.194 267.56 187.755 267.252 188.393 267.252C188.635 267.252 188.789 267.362 188.855 267.582C188.943 267.78 188.987 267.978 188.987 268.176V269.166C189.097 269.254 189.207 269.32 189.317 269.364C189.449 269.386 189.559 269.43 189.647 269.496C189.757 269.54 189.834 269.617 189.878 269.727C189.944 269.837 189.977 270.013 189.977 270.255C189.977 270.409 189.966 270.552 189.944 270.684C189.922 270.794 189.911 270.904 189.911 271.014C189.911 271.586 189.955 272.147 190.043 272.697C190.131 273.247 190.307 273.742 190.571 274.182C190.835 274.6 191.198 274.952 191.66 275.238C192.122 275.502 192.738 275.634 193.508 275.634C194.476 275.634 195.29 275.436 195.95 275.04C196.632 274.622 197.193 274.171 197.633 273.687C198.095 273.181 198.458 272.73 198.722 272.334C198.986 271.916 199.206 271.707 199.382 271.707C199.668 271.707 199.811 271.85 199.811 272.136ZM188.228 270.684C188.228 270.596 188.206 270.519 188.162 270.453C188.118 270.365 188.096 270.288 188.096 270.222C188.096 270.134 188.118 270.057 188.162 269.991C188.206 269.925 188.228 269.837 188.228 269.727C188.228 269.661 188.206 269.617 188.162 269.595C188.118 269.551 188.096 269.507 188.096 269.463C187.898 269.507 187.689 269.694 187.469 270.024C187.271 270.354 187.073 270.739 186.875 271.179C186.699 271.619 186.556 272.07 186.446 272.532C186.336 272.972 186.281 273.335 186.281 273.621C186.281 273.775 186.325 274.028 186.413 274.38C186.501 274.732 186.6 274.963 186.71 275.073C187.084 274.303 187.425 273.555 187.733 272.829C188.063 272.103 188.228 271.388 188.228 270.684ZM209.556 273.687C209.556 273.797 209.501 273.907 209.391 274.017C209.303 274.105 209.248 274.204 209.226 274.314C209.226 274.556 209.27 274.787 209.358 275.007C209.468 275.227 209.523 275.491 209.523 275.799C209.523 276.085 209.435 276.228 209.259 276.228C209.039 276.228 208.874 276.261 208.764 276.327C208.676 276.371 208.511 276.415 208.269 276.459C208.137 276.459 207.994 276.338 207.84 276.096C207.752 275.986 207.675 275.854 207.609 275.7C207.609 275.678 207.543 275.722 207.411 275.832C207.301 275.942 207.103 276.074 206.817 276.228C206.553 276.36 206.179 276.492 205.695 276.624C205.233 276.734 204.639 276.789 203.913 276.789C203.297 276.789 202.758 276.657 202.296 276.393C201.834 276.107 201.449 275.744 201.141 275.304C200.855 274.864 200.635 274.369 200.481 273.819C200.349 273.247 200.283 272.675 200.283 272.103C200.283 271.575 200.338 271.08 200.448 270.618C200.58 270.134 200.756 269.716 200.976 269.364C201.196 268.99 201.471 268.693 201.801 268.473C202.131 268.253 202.516 268.143 202.956 268.143C203.374 268.143 203.792 268.275 204.21 268.539C204.628 268.803 205.002 269.089 205.332 269.397C205.662 269.705 205.926 269.991 206.124 270.255C206.344 270.497 206.454 270.618 206.454 270.618C206.146 268.902 205.871 267.351 205.629 265.965C205.519 265.371 205.409 264.788 205.299 264.216C205.211 263.622 205.123 263.094 205.035 262.632C204.947 262.17 204.87 261.785 204.804 261.477C204.76 261.147 204.738 260.949 204.738 260.883C204.716 260.751 204.694 260.52 204.672 260.19C204.65 259.838 204.628 259.475 204.606 259.101C204.584 258.727 204.562 258.386 204.54 258.078C204.518 257.77 204.496 257.572 204.474 257.484C204.408 257.264 204.32 256.989 204.21 256.659C204.122 256.329 204.078 256.142 204.078 256.098C204.078 255.988 204.133 255.856 204.243 255.702C204.353 255.526 204.496 255.438 204.672 255.438C204.804 255.438 204.925 255.449 205.035 255.471C205.145 255.493 205.244 255.559 205.332 255.669C205.42 255.779 205.497 255.955 205.563 256.197C205.651 256.417 205.728 256.736 205.794 257.154C205.816 257.374 205.882 257.792 205.992 258.408C206.102 259.024 206.212 259.695 206.322 260.421C206.432 261.147 206.542 261.84 206.652 262.5C206.762 263.16 206.839 263.644 206.883 263.952C206.993 264.788 207.136 265.701 207.312 266.691C207.51 267.659 207.708 268.594 207.906 269.496C208.104 270.398 208.302 271.201 208.5 271.905C208.698 272.587 208.874 273.049 209.028 273.291C209.072 273.379 209.16 273.445 209.292 273.489C209.424 273.511 209.512 273.577 209.556 273.687ZM207.114 274.347C207.092 274.281 206.949 274.006 206.685 273.522C206.443 273.016 206.124 272.477 205.728 271.905C205.354 271.311 204.925 270.783 204.441 270.321C203.979 269.859 203.528 269.628 203.088 269.628C202.714 269.628 202.406 269.914 202.164 270.486C201.944 271.058 201.834 271.718 201.834 272.466C201.834 273.302 202.076 273.973 202.56 274.479C203.066 274.985 203.627 275.238 204.243 275.238C204.771 275.238 205.321 275.15 205.893 274.974C206.465 274.798 206.872 274.589 207.114 274.347ZM213.726 263.952C213.726 263.996 213.66 264.084 213.528 264.216C213.418 264.348 213.275 264.491 213.099 264.645C212.945 264.777 212.78 264.898 212.604 265.008C212.45 265.118 212.329 265.173 212.241 265.173C211.889 265.173 211.548 265.096 211.218 264.942C210.91 264.788 210.756 264.579 210.756 264.315C210.756 264.205 210.767 264.073 210.789 263.919C210.833 263.765 210.888 263.622 210.954 263.49C211.042 263.336 211.152 263.215 211.284 263.127C211.416 263.017 211.581 262.962 211.779 262.962C211.911 262.962 212.087 262.995 212.307 263.061C212.527 263.105 212.736 263.182 212.934 263.292C213.154 263.38 213.341 263.49 213.495 263.622C213.649 263.732 213.726 263.842 213.726 263.952ZM216.201 282.102C216.201 282.41 216.113 282.685 215.937 282.927C215.761 283.191 215.552 283.411 215.31 283.587C215.068 283.763 214.815 283.895 214.551 283.983C214.287 284.093 214.067 284.148 213.891 284.148C213.363 284.148 212.747 284.06 212.043 283.884C211.361 283.73 210.723 283.466 210.129 283.092C209.513 282.74 208.996 282.278 208.578 281.706C208.16 281.156 207.951 280.474 207.951 279.66C207.951 279.572 207.973 279.484 208.017 279.396C208.061 279.33 208.138 279.297 208.248 279.297C208.402 279.297 208.6 279.462 208.842 279.792C209.062 280.144 209.37 280.529 209.766 280.947C210.162 281.365 210.668 281.739 211.284 282.069C211.9 282.421 212.692 282.597 213.66 282.597C213.968 282.597 214.177 282.564 214.287 282.498C214.419 282.432 214.485 282.212 214.485 281.838C214.485 281.486 214.43 281.101 214.32 280.683C214.232 280.265 214.122 279.847 213.99 279.429C213.858 279.033 213.726 278.648 213.594 278.274C213.484 277.9 213.396 277.581 213.33 277.317C213.308 277.251 213.231 276.976 213.099 276.492C212.989 275.986 212.868 275.414 212.736 274.776C212.604 274.116 212.483 273.478 212.373 272.862C212.263 272.246 212.208 271.795 212.208 271.509C212.208 271.355 212.23 271.146 212.274 270.882C212.318 270.618 212.461 270.486 212.703 270.486C212.813 270.486 212.934 270.629 213.066 270.915C213.198 271.179 213.33 271.52 213.462 271.938C213.616 272.334 213.748 272.774 213.858 273.258C213.99 273.742 214.1 274.204 214.188 274.644C214.298 275.062 214.386 275.425 214.452 275.733C214.518 276.041 214.562 276.228 214.584 276.294C214.628 276.47 214.738 276.789 214.914 277.251C215.09 277.713 215.266 278.241 215.442 278.835C215.64 279.407 215.816 279.99 215.97 280.584C216.124 281.178 216.201 281.684 216.201 282.102ZM232.908 272.136C232.908 272.532 232.721 273.027 232.347 273.621C231.995 274.193 231.511 274.754 230.895 275.304C230.279 275.854 229.564 276.327 228.75 276.723C227.936 277.097 227.089 277.284 226.209 277.284C225.813 277.284 225.395 277.218 224.955 277.086C224.515 276.954 224.086 276.767 223.668 276.525C223.25 276.261 222.876 275.953 222.546 275.601C222.216 275.227 221.974 274.809 221.82 274.347C221.688 274.479 221.523 274.699 221.325 275.007C221.149 275.315 220.951 275.634 220.731 275.964C220.511 276.272 220.269 276.547 220.005 276.789C219.741 277.009 219.466 277.119 219.18 277.119C218.894 277.119 218.652 276.976 218.454 276.69C218.278 276.382 218.135 276.052 218.025 275.7C217.915 275.326 217.838 274.974 217.794 274.644C217.75 274.314 217.728 274.127 217.728 274.083C217.728 273.819 217.805 273.324 217.959 272.598C218.113 271.85 218.344 271.08 218.652 270.288C218.96 269.496 219.345 268.792 219.807 268.176C220.291 267.56 220.852 267.252 221.49 267.252C221.732 267.252 221.886 267.362 221.952 267.582C222.04 267.78 222.084 267.978 222.084 268.176V269.166C222.194 269.254 222.304 269.32 222.414 269.364C222.546 269.386 222.656 269.43 222.744 269.496C222.854 269.54 222.931 269.617 222.975 269.727C223.041 269.837 223.074 270.013 223.074 270.255C223.074 270.409 223.063 270.552 223.041 270.684C223.019 270.794 223.008 270.904 223.008 271.014C223.008 271.586 223.052 272.147 223.14 272.697C223.228 273.247 223.404 273.742 223.668 274.182C223.932 274.6 224.295 274.952 224.757 275.238C225.219 275.502 225.835 275.634 226.605 275.634C227.573 275.634 228.387 275.436 229.047 275.04C229.729 274.622 230.29 274.171 230.73 273.687C231.192 273.181 231.555 272.73 231.819 272.334C232.083 271.916 232.303 271.707 232.479 271.707C232.765 271.707 232.908 271.85 232.908 272.136ZM221.325 270.684C221.325 270.596 221.303 270.519 221.259 270.453C221.215 270.365 221.193 270.288 221.193 270.222C221.193 270.134 221.215 270.057 221.259 269.991C221.303 269.925 221.325 269.837 221.325 269.727C221.325 269.661 221.303 269.617 221.259 269.595C221.215 269.551 221.193 269.507 221.193 269.463C220.995 269.507 220.786 269.694 220.566 270.024C220.368 270.354 220.17 270.739 219.972 271.179C219.796 271.619 219.653 272.07 219.543 272.532C219.433 272.972 219.378 273.335 219.378 273.621C219.378 273.775 219.422 274.028 219.51 274.38C219.598 274.732 219.697 274.963 219.807 275.073C220.181 274.303 220.522 273.555 220.83 272.829C221.16 272.103 221.325 271.388 221.325 270.684ZM242.818 272.994C242.818 273.214 242.785 273.445 242.719 273.687C242.653 273.907 242.587 274.094 242.521 274.248C242.477 274.314 242.268 274.545 241.894 274.941C241.542 275.315 241.091 275.711 240.541 276.129C240.013 276.547 239.408 276.932 238.726 277.284C238.066 277.614 237.428 277.779 236.812 277.779C236.438 277.779 236.053 277.713 235.657 277.581C235.283 277.449 234.931 277.24 234.601 276.954C234.271 276.646 233.996 276.272 233.776 275.832C233.578 275.392 233.479 274.853 233.479 274.215C233.479 273.159 233.655 272.202 234.007 271.344C234.359 270.486 234.711 269.804 235.063 269.298C235.217 269.056 235.415 268.814 235.657 268.572C235.921 268.308 236.174 268.077 236.416 267.879C236.658 267.659 236.878 267.483 237.076 267.351C237.296 267.219 237.45 267.153 237.538 267.153C237.736 267.153 237.912 267.208 238.066 267.318C238.242 267.428 238.33 267.538 238.33 267.648C238.33 267.824 238.275 267.978 238.165 268.11C238.077 268.22 237.945 268.352 237.769 268.506C237.593 268.638 237.384 268.825 237.142 269.067C236.9 269.287 236.647 269.584 236.383 269.958C235.855 270.684 235.459 271.432 235.195 272.202C234.953 272.95 234.832 273.61 234.832 274.182C234.832 274.754 235.041 275.216 235.459 275.568C235.899 275.898 236.35 276.063 236.812 276.063C237.648 276.063 238.385 275.876 239.023 275.502C239.683 275.128 240.244 274.71 240.706 274.248C241.168 273.786 241.542 273.368 241.828 272.994C242.114 272.62 242.323 272.433 242.455 272.433C242.697 272.433 242.818 272.62 242.818 272.994ZM254.638 275.535C254.66 275.579 254.671 275.645 254.671 275.733C254.671 275.865 254.572 276.063 254.374 276.327C254.308 276.415 254.165 276.558 253.945 276.756C253.725 276.954 253.428 277.152 253.054 277.35C252.68 277.548 252.218 277.724 251.668 277.878C251.14 278.032 250.513 278.109 249.787 278.109C249.281 278.109 248.786 277.999 248.302 277.779C247.818 277.537 247.389 277.196 247.015 276.756C246.641 276.294 246.333 275.733 246.091 275.073C245.849 274.391 245.728 273.599 245.728 272.697C245.728 271.839 245.838 271.036 246.058 270.288C246.278 269.54 246.553 268.88 246.883 268.308C247.235 267.736 247.62 267.285 248.038 266.955C248.456 266.625 248.863 266.46 249.259 266.46C249.611 266.46 249.963 266.537 250.315 266.691C250.689 266.823 251.019 266.999 251.305 267.219C251.613 267.439 251.855 267.692 252.031 267.978C252.207 268.242 252.295 268.517 252.295 268.803C252.295 269.133 252.141 269.474 251.833 269.826C251.547 270.178 251.195 270.508 250.777 270.816C250.359 271.102 249.941 271.344 249.523 271.542C249.105 271.718 248.775 271.806 248.533 271.806C248.401 271.806 248.28 271.751 248.17 271.641C248.082 271.509 248.038 271.355 248.038 271.179C248.038 270.871 248.17 270.629 248.434 270.453C248.72 270.277 249.028 270.123 249.358 269.991C249.688 269.837 249.985 269.661 250.249 269.463C250.535 269.265 250.678 268.99 250.678 268.638C250.678 268.594 250.623 268.484 250.513 268.308C250.403 268.132 250.106 268.044 249.622 268.044C249.402 268.044 249.149 268.176 248.863 268.44C248.577 268.682 248.302 269.023 248.038 269.463C247.774 269.881 247.554 270.387 247.378 270.981C247.202 271.553 247.114 272.18 247.114 272.862C247.114 273.434 247.213 273.951 247.411 274.413C247.631 274.875 247.906 275.271 248.236 275.601C248.566 275.909 248.951 276.151 249.391 276.327C249.831 276.503 250.282 276.591 250.744 276.591C251.074 276.591 251.426 276.525 251.8 276.393C252.196 276.239 252.559 276.085 252.889 275.931C253.241 275.755 253.538 275.601 253.78 275.469C254.044 275.315 254.209 275.238 254.275 275.238C254.341 275.238 254.407 275.271 254.473 275.337C254.561 275.403 254.616 275.469 254.638 275.535ZM266.868 274.941C266.868 275.073 266.824 275.205 266.736 275.337C266.648 275.469 266.538 275.59 266.406 275.7C266.296 275.81 266.164 275.909 266.01 275.997C265.878 276.063 265.757 276.096 265.647 276.096C265.273 276.096 264.789 276.019 264.195 275.865C263.623 275.689 263.161 275.425 262.809 275.073C262.435 274.699 262.105 274.259 261.819 273.753C261.533 273.225 261.214 272.455 260.862 271.443C260.62 272.411 260.334 273.368 260.004 274.314C259.696 275.26 259.19 276.129 258.486 276.921C258.442 276.965 258.376 276.987 258.288 276.987C258.134 276.987 257.969 276.91 257.793 276.756C257.617 276.602 257.529 276.448 257.529 276.294C257.529 276.14 257.507 275.788 257.463 275.238C257.441 274.666 257.408 274.039 257.364 273.357C257.32 272.653 257.276 271.949 257.232 271.245C257.21 270.519 257.199 269.925 257.199 269.463C257.199 269.243 257.21 268.957 257.232 268.605C257.254 268.231 257.32 267.912 257.43 267.648C257.452 267.604 257.529 267.516 257.661 267.384C257.815 267.252 257.98 267.186 258.156 267.186C258.31 267.186 258.398 267.285 258.42 267.483C258.442 267.681 258.453 267.901 258.453 268.143V273.357C258.453 273.467 258.464 273.621 258.486 273.819C258.53 274.017 258.585 274.16 258.651 274.248C258.893 273.72 259.113 273.104 259.311 272.4C259.531 271.674 259.74 270.992 259.938 270.354C260.136 269.694 260.334 269.144 260.532 268.704C260.73 268.242 260.928 268.011 261.126 268.011C261.346 268.011 261.522 268.055 261.654 268.143C261.786 268.231 261.896 268.407 261.984 268.671C262.094 269.309 262.182 269.881 262.248 270.387C262.314 270.871 262.391 271.311 262.479 271.707C262.589 272.103 262.732 272.477 262.908 272.829C263.106 273.159 263.37 273.467 263.7 273.753C264.008 274.039 264.349 274.248 264.723 274.38C265.119 274.512 265.46 274.578 265.746 274.578C265.878 274.578 266.021 274.556 266.175 274.512C266.329 274.446 266.439 274.413 266.505 274.413C266.593 274.413 266.67 274.49 266.736 274.644C266.824 274.798 266.868 274.897 266.868 274.941ZM277.315 264.084C277.029 264.414 276.622 264.744 276.094 265.074C275.566 265.382 275.038 265.668 274.51 265.932C273.982 266.196 273.52 266.427 273.124 266.625C272.728 266.801 272.53 266.922 272.53 266.988C272.53 267.054 272.574 267.252 272.662 267.582C272.75 267.912 272.849 268.308 272.959 268.77C273.091 269.21 273.223 269.672 273.355 270.156C273.487 270.64 273.597 271.069 273.685 271.443C273.729 271.663 273.784 271.949 273.85 272.301C273.916 272.653 273.971 273.005 274.015 273.357C274.081 273.709 274.136 274.028 274.18 274.314C274.224 274.578 274.246 274.721 274.246 274.743C274.246 275.073 274.191 275.414 274.081 275.766C273.971 276.118 273.795 276.294 273.553 276.294C273.421 276.294 273.3 276.239 273.19 276.129C273.08 276.019 272.981 275.898 272.893 275.766C272.805 275.612 272.739 275.469 272.695 275.337C272.651 275.205 272.629 275.106 272.629 275.04C272.629 274.996 272.629 274.93 272.629 274.842C272.651 274.754 272.662 274.655 272.662 274.545C272.662 274.127 272.596 273.522 272.464 272.73C272.42 272.488 272.332 272.114 272.2 271.608C272.068 271.102 271.936 270.585 271.804 270.057C271.65 269.441 271.474 268.77 271.276 268.044C271.188 267.736 271.133 267.582 271.111 267.582C270.957 267.582 270.693 267.681 270.319 267.879C269.967 268.055 269.56 268.286 269.098 268.572C268.636 268.836 268.152 269.133 267.646 269.463C267.14 269.771 266.667 270.068 266.227 270.354C265.787 270.618 265.413 270.849 265.105 271.047C264.775 271.223 264.577 271.311 264.511 271.311C264.225 271.311 263.994 271.212 263.818 271.014C263.642 270.816 263.554 270.596 263.554 270.354C263.554 270.222 263.741 270.035 264.115 269.793C264.467 269.529 264.918 269.243 265.468 268.935C265.996 268.627 266.579 268.308 267.217 267.978C267.833 267.648 268.405 267.351 268.933 267.087C269.483 266.823 269.934 266.603 270.286 266.427C270.66 266.251 270.847 266.163 270.847 266.163C270.649 265.151 270.484 264.249 270.352 263.457C270.242 262.775 270.132 262.148 270.022 261.576C269.934 261.004 269.89 260.696 269.89 260.652C269.89 260.366 269.945 260.157 270.055 260.025C270.187 259.871 270.33 259.794 270.484 259.794C270.726 259.794 270.88 259.959 270.946 260.289C271.188 261.477 271.408 262.533 271.606 263.457C271.826 264.381 272.035 265.129 272.233 265.701C272.431 265.657 272.772 265.536 273.256 265.338C273.74 265.118 274.246 264.887 274.774 264.645C275.302 264.403 275.775 264.194 276.193 264.018C276.633 263.82 276.886 263.721 276.952 263.721C277.084 263.721 277.161 263.765 277.183 263.853C277.227 263.941 277.271 264.018 277.315 264.084ZM288.282 275.535C288.304 275.579 288.315 275.645 288.315 275.733C288.315 275.865 288.216 276.063 288.018 276.327C287.952 276.415 287.809 276.558 287.589 276.756C287.369 276.954 287.072 277.152 286.698 277.35C286.324 277.548 285.862 277.724 285.312 277.878C284.784 278.032 284.157 278.109 283.431 278.109C282.925 278.109 282.43 277.999 281.946 277.779C281.462 277.537 281.033 277.196 280.659 276.756C280.285 276.294 279.977 275.733 279.735 275.073C279.493 274.391 279.372 273.599 279.372 272.697C279.372 271.839 279.482 271.036 279.702 270.288C279.922 269.54 280.197 268.88 280.527 268.308C280.879 267.736 281.264 267.285 281.682 266.955C282.1 266.625 282.507 266.46 282.903 266.46C283.255 266.46 283.607 266.537 283.959 266.691C284.333 266.823 284.663 266.999 284.949 267.219C285.257 267.439 285.499 267.692 285.675 267.978C285.851 268.242 285.939 268.517 285.939 268.803C285.939 269.133 285.785 269.474 285.477 269.826C285.191 270.178 284.839 270.508 284.421 270.816C284.003 271.102 283.585 271.344 283.167 271.542C282.749 271.718 282.419 271.806 282.177 271.806C282.045 271.806 281.924 271.751 281.814 271.641C281.726 271.509 281.682 271.355 281.682 271.179C281.682 270.871 281.814 270.629 282.078 270.453C282.364 270.277 282.672 270.123 283.002 269.991C283.332 269.837 283.629 269.661 283.893 269.463C284.179 269.265 284.322 268.99 284.322 268.638C284.322 268.594 284.267 268.484 284.157 268.308C284.047 268.132 283.75 268.044 283.266 268.044C283.046 268.044 282.793 268.176 282.507 268.44C282.221 268.682 281.946 269.023 281.682 269.463C281.418 269.881 281.198 270.387 281.022 270.981C280.846 271.553 280.758 272.18 280.758 272.862C280.758 273.434 280.857 273.951 281.055 274.413C281.275 274.875 281.55 275.271 281.88 275.601C282.21 275.909 282.595 276.151 283.035 276.327C283.475 276.503 283.926 276.591 284.388 276.591C284.718 276.591 285.07 276.525 285.444 276.393C285.84 276.239 286.203 276.085 286.533 275.931C286.885 275.755 287.182 275.601 287.424 275.469C287.688 275.315 287.853 275.238 287.919 275.238C287.985 275.238 288.051 275.271 288.117 275.337C288.205 275.403 288.26 275.469 288.282 275.535Z" fill="#FEFEFE"/>
<circle cx="324" cy="223" r="3" fill="white"/>
<rect x="305.5" y="205.5" width="42" height="42" stroke="white" stroke-width="5"/>
</svg>
